<svg width="40" height="40" viewBox="0 0 40 40" fill="none" xmlns="http://www.w3.org/2000/svg">
<circle cx="20" cy="20" r="20" fill="#FFE943"/>
<path d="M19.998 17.6807V18.437C22.4811 19.4509 24.9407 20.778 27.1748 22.399C28.6635 23.479 31.3642 25.6768 31.9003 27.6634C32.7263 30.7244 28.1857 30.3356 26.7275 30.1274C24.435 29.8002 22.1708 28.9829 19.998 28.1176V32C18.0324 31.2261 16.0858 30.198 14.2681 29.0338C12.477 27.8867 8.68188 25.1076 8.09615 22.7736C7.33155 19.7292 11.7381 20.1024 13.2259 20.3091C15.5458 20.6308 17.7965 21.4647 19.998 22.3193L19.9911 21.7733C17.4514 20.6555 14.9409 19.3445 12.6476 17.6514C11.2328 16.6067 8.40381 14.2647 8.04306 12.2968C7.55828 9.65227 11.2986 9.83429 12.6654 9.96639C15.1694 10.2089 17.6255 11.1518 19.9985 12.0331V8C21.9628 8.77445 23.9115 9.80252 25.7283 10.9662C27.5604 12.1395 30.9329 14.6166 31.7776 16.8649C33.0957 20.3716 28.08 19.8911 26.4668 19.64C24.2509 19.2956 22.1055 18.503 19.9985 17.6807H19.998Z" fill="black"/>
</svg>
