<svg width="19" height="19" viewBox="0 0 19 19" fill="none" xmlns="http://www.w3.org/2000/svg">
<path d="M18.3333 9.16667C18.3333 4.10407 14.2293 8.65216e-06 9.16667 8.65216e-06C4.10406 8.65216e-06 0 4.10407 0 9.16667C0 13.4657 2.95955 17.0728 6.95222 18.0634V11.9679H5.06198V9.16667H6.95222V7.95964C6.95222 4.8396 8.36418 3.39347 11.4273 3.39347C12.008 3.39347 13.0101 3.50732 13.42 3.62121V6.16052C13.2037 6.13775 12.8279 6.12635 12.361 6.12635C10.858 6.12635 10.2772 6.69571 10.2772 8.17601V9.16667H13.2714L12.757 11.9679H10.2772V18.2662C14.816 17.718 18.3333 13.8533 18.3333 9.16667Z" fill="#0866FF"/>
<path d="M12.7569 11.9679L13.2713 9.16674H10.2771V8.17604C10.2771 6.69573 10.8579 6.12641 12.3609 6.12641C12.8278 6.12641 13.2036 6.13778 13.4199 6.16055V3.62127C13.01 3.50739 12.0079 3.3935 11.4272 3.3935C8.36413 3.3935 6.95213 4.83967 6.95213 7.95971V9.16674H5.06189V11.9679H6.95213V18.0635C7.66137 18.2394 8.40296 18.3334 9.16658 18.3334C9.54256 18.3334 9.91304 18.3102 10.2771 18.2663V11.9679H12.7569Z" fill="white"/>
</svg>
