<svg width="17" height="17" viewBox="0 0 17 17" fill="none" xmlns="http://www.w3.org/2000/svg">
<path d="M16.6663 8.52477C16.6663 7.95832 16.6195 7.38877 16.5195 6.83148H8.50018V10.0405H13.0925C12.9019 11.0754 12.2896 11.991 11.393 12.5728V14.655H14.1328C15.7417 13.2036 16.6663 11.0602 16.6663 8.52477Z" fill="#4285F4"/>
<path d="M8.50019 16.6669C10.7932 16.6669 12.7269 15.9289 14.1359 14.6552L11.3961 12.5729C10.6339 13.0813 9.64977 13.3691 8.50327 13.3691C6.28522 13.3691 4.40455 11.9023 3.72977 9.93042H0.902527V12.0769C2.34583 14.8909 5.28553 16.6669 8.50019 16.6669Z" fill="#34A853"/>
<path d="M3.7269 9.93026C3.37077 8.89526 3.37077 7.77457 3.7269 6.73959V4.59311H0.902786C-0.303085 6.94782 -0.303085 9.72201 0.902786 12.0768L3.7269 9.93026Z" fill="#FBBC04"/>
<path d="M8.50019 3.29798C9.71227 3.27961 10.8838 3.72666 11.7616 4.54729L14.189 2.16809C12.652 0.753426 10.612 -0.0243314 8.50019 0.000164843C5.28553 0.000164843 2.34583 1.77614 0.902527 4.59322L3.72664 6.73971C4.39831 4.76469 6.28209 3.29798 8.50019 3.29798Z" fill="#EA4335"/>
</svg>
