<svg width="20" height="14" viewBox="0 0 20 14" fill="none" xmlns="http://www.w3.org/2000/svg">
<path d="M19.299 6.18203C19.2701 6.11875 18.5857 4.59922 17.074 3.0875C15.0514 1.06797 12.5021 0 9.68964 0C6.87714 0 4.32792 1.06797 2.30761 3.0875C0.795888 4.59922 0.111513 6.11875 0.0802628 6.18203C0.0273355 6.30203 0 6.43174 0 6.56289C0 6.69404 0.0273355 6.82375 0.0802628 6.94375C0.109169 7.00781 0.793544 8.52656 2.30604 10.0383C4.32792 12.0578 6.87714 13.125 9.68964 13.125C12.5021 13.125 15.0514 12.0578 17.0709 10.0383C18.5834 8.52656 19.2678 7.00781 19.2967 6.94375C19.35 6.82392 19.3777 6.69429 19.3781 6.56314C19.3785 6.43199 19.3516 6.30219 19.299 6.18203ZM15.7006 8.76016C14.0232 10.4117 12.0014 11.25 9.68964 11.25C7.37792 11.25 5.35604 10.4117 3.68104 8.75937C3.02194 8.10721 2.45498 7.36809 1.99589 6.5625C2.45511 5.75723 3.02206 5.01839 3.68104 4.36641C5.35683 2.71328 7.37792 1.875 9.68964 1.875C12.0014 1.875 14.0225 2.71328 15.6982 4.36641C16.3573 5.01833 16.9242 5.75719 17.3834 6.5625C16.9242 7.36804 16.3573 8.10715 15.6982 8.75937L15.7006 8.76016ZM9.68964 3.125C9.00976 3.125 8.34516 3.32661 7.77987 3.70432C7.21457 4.08204 6.77398 4.6189 6.5138 5.24703C6.25363 5.87515 6.18555 6.56631 6.31819 7.23312C6.45083 7.89993 6.77822 8.51244 7.25896 8.99318C7.7397 9.47392 8.35221 9.80131 9.01901 9.93395C9.68582 10.0666 10.377 9.99851 11.0051 9.73833C11.6332 9.47816 12.1701 9.03757 12.5478 8.47227C12.9255 7.90698 13.1271 7.24237 13.1271 6.5625C13.1261 5.65113 12.7636 4.77739 12.1192 4.13296C11.4747 3.48853 10.601 3.12603 9.68964 3.125ZM9.68964 8.125C9.3806 8.125 9.07851 8.03336 8.82156 7.86167C8.56461 7.68998 8.36434 7.44595 8.24608 7.16044C8.12781 6.87493 8.09687 6.56077 8.15716 6.25767C8.21745 5.95458 8.36626 5.67616 8.58478 5.45764C8.8033 5.23913 9.08171 5.09031 9.38481 5.03002C9.6879 4.96973 10.0021 5.00068 10.2876 5.11894C10.5731 5.2372 10.8171 5.43747 10.9888 5.69442C11.1605 5.95137 11.2521 6.25347 11.2521 6.5625C11.2521 6.9769 11.0875 7.37433 10.7945 7.66735C10.5015 7.96038 10.104 8.125 9.68964 8.125Z" fill="black"/>
</svg>
