<svg width="17" height="9" viewBox="0 0 17 9" fill="none" xmlns="http://www.w3.org/2000/svg">
<path d="M16.7534 5.46398C16.815 5.57088 16.8549 5.68886 16.8709 5.81119C16.8868 5.93351 16.8785 6.05778 16.8465 6.1769C16.8144 6.29602 16.7592 6.40766 16.684 6.50544C16.6088 6.60322 16.515 6.68523 16.4081 6.74679C16.3012 6.80835 16.1832 6.84824 16.0609 6.86421C15.9386 6.88017 15.8143 6.87188 15.6952 6.83981C15.5761 6.80775 15.4644 6.75253 15.3667 6.67732C15.2689 6.60211 15.1869 6.50838 15.1253 6.40148L13.8081 4.09679C13.0731 4.55916 12.2807 4.9232 11.4511 5.1796L11.8644 7.65148C11.905 7.89669 11.8466 8.14801 11.702 8.35018C11.5574 8.55235 11.3385 8.68883 11.0933 8.7296C11.0417 8.73869 10.9894 8.74313 10.937 8.74288C10.7156 8.74266 10.5015 8.66409 10.3325 8.5211C10.1635 8.37811 10.0505 8.17992 10.0136 7.96163L9.61125 5.55538C8.83083 5.64184 8.04324 5.64184 7.26281 5.55538L6.86438 7.96398C6.82743 8.18253 6.71425 8.38093 6.54491 8.52395C6.37557 8.66697 6.16103 8.74537 5.93938 8.74523C5.887 8.74548 5.83471 8.74103 5.78313 8.73195C5.6617 8.7115 5.54548 8.66733 5.44113 8.60196C5.33677 8.53659 5.24632 8.4513 5.17493 8.35096C5.10354 8.25063 5.05262 8.13721 5.02507 8.01719C4.99752 7.89717 4.99389 7.7729 5.01438 7.65148L5.42766 5.17335C4.59804 4.91695 3.80562 4.55291 3.07063 4.09054L1.75344 6.40148C1.62912 6.61738 1.42412 6.77505 1.18355 6.83981C0.942976 6.90457 0.68653 6.87111 0.470627 6.74679C0.254724 6.62247 0.09705 6.41747 0.0322914 6.1769C-0.0324673 5.93633 0.000994029 5.67988 0.125314 5.46398L1.56438 2.95226C1.07663 2.51179 0.624443 2.03348 0.212033 1.52179C0.0664409 1.32761 0.0018281 1.08453 0.0317849 0.843683C0.0617417 0.602838 0.183933 0.382996 0.372659 0.230396C0.561384 0.0777969 0.801935 0.00433319 1.04372 0.0254578C1.2855 0.0465823 1.50966 0.160648 1.66906 0.343664C2.92219 1.89523 5.11438 3.74523 8.43938 3.74523C11.7644 3.74523 13.9566 1.89523 15.2097 0.343664C15.3665 0.152089 15.5927 0.0303233 15.839 0.00494243C16.0853 -0.0204385 16.3316 0.0526259 16.5242 0.20819C16.7168 0.363754 16.84 0.589187 16.867 0.835288C16.894 1.08139 16.8226 1.32818 16.6683 1.52179C16.2554 2.03354 15.8027 2.51185 15.3144 2.95226L16.7534 5.46398Z" fill="black"/>
</svg>
