<svg width="14" height="14" viewBox="0 0 14 14" fill="none" xmlns="http://www.w3.org/2000/svg">
<path d="M7.75 10C7.75 10.1978 7.69135 10.3911 7.58147 10.5556C7.47159 10.72 7.31541 10.8482 7.13269 10.9239C6.94996 10.9996 6.74889 11.0194 6.55491 10.9808C6.36093 10.9422 6.18275 10.847 6.0429 10.7071C5.90304 10.5673 5.8078 10.3891 5.76922 10.1951C5.73063 10.0011 5.75044 9.80004 5.82612 9.61732C5.90181 9.43459 6.02998 9.27841 6.19443 9.16853C6.35888 9.05865 6.55222 9 6.75 9C7.01522 9 7.26957 9.10536 7.45711 9.29289C7.64465 9.48043 7.75 9.73478 7.75 10ZM13.5 6.75C13.5 8.08502 13.1041 9.39007 12.3624 10.5001C11.6207 11.6101 10.5665 12.4753 9.33312 12.9862C8.09971 13.4971 6.74251 13.6308 5.43314 13.3703C4.12377 13.1099 2.92104 12.467 1.97703 11.523C1.03303 10.579 0.390153 9.37623 0.129702 8.06686C-0.130748 6.75749 0.00292468 5.40029 0.513816 4.16689C1.02471 2.93349 1.88987 1.87928 2.9999 1.13758C4.10994 0.395881 5.41498 0 6.75 0C8.5396 0.00198514 10.2553 0.713781 11.5208 1.97922C12.7862 3.24466 13.498 4.9604 13.5 6.75ZM12 6.75C12 5.71165 11.6921 4.69661 11.1152 3.83326C10.5383 2.9699 9.7184 2.29699 8.75909 1.89963C7.79978 1.50227 6.74418 1.3983 5.72578 1.60088C4.70738 1.80345 3.77192 2.30346 3.03769 3.03769C2.30347 3.77191 1.80345 4.70738 1.60088 5.72578C1.39831 6.74418 1.50228 7.79978 1.89964 8.75909C2.297 9.7184 2.9699 10.5383 3.83326 11.1152C4.69662 11.6921 5.71165 12 6.75 12C8.14193 11.9985 9.47643 11.4449 10.4607 10.4607C11.4449 9.47642 11.9985 8.14193 12 6.75ZM6.75 2.75C5.23375 2.75 4 3.87125 4 5.25V5.5C4 5.69891 4.07902 5.88968 4.21967 6.03033C4.36032 6.17098 4.55109 6.25 4.75 6.25C4.94892 6.25 5.13968 6.17098 5.28033 6.03033C5.42099 5.88968 5.5 5.69891 5.5 5.5V5.25C5.5 4.69875 6.0625 4.25 6.75 4.25C7.4375 4.25 8 4.69875 8 5.25C8 5.80125 7.4375 6.25 6.75 6.25C6.55109 6.25 6.36032 6.32902 6.21967 6.46967C6.07902 6.61032 6 6.80109 6 7V7.5C5.99956 7.6853 6.06772 7.8642 6.19135 8.00222C6.31498 8.14024 6.48533 8.22761 6.66956 8.24748C6.85378 8.26736 7.03885 8.21833 7.18907 8.10985C7.33929 8.00138 7.44404 7.84113 7.48313 7.66C8.64438 7.3675 9.5 6.39813 9.5 5.25C9.5 3.87125 8.26625 2.75 6.75 2.75Z" fill="black"/>
</svg>
