<svg width="164" height="32" viewBox="0 0 164 32" fill="none" xmlns="http://www.w3.org/2000/svg">
<path d="M15.9974 12.9076V13.916C19.3081 15.2679 22.5876 17.0373 25.5664 19.1987C27.5514 20.6387 31.1523 23.5691 31.8671 26.2178C32.9684 30.2992 26.9143 29.7808 24.97 29.5032C21.9133 29.0669 18.8944 27.9771 15.9974 26.8235V32C13.3765 30.9681 10.7811 29.5973 8.35753 28.045C5.96932 26.5156 0.909178 22.8101 0.128194 19.6982C-0.891261 15.639 4.9841 16.1365 6.96789 16.4121C10.0611 16.841 13.062 17.9529 15.9974 19.0924L15.9881 18.3644C12.6019 16.874 9.25456 15.1261 6.19677 12.8686C4.31046 11.4756 0.538414 8.35294 0.0574069 5.72908C-0.588964 2.20303 4.39807 2.44571 6.22056 2.62185C9.55917 2.94521 12.834 4.20235 15.9979 5.37748V0C18.6171 1.03261 21.2153 2.40336 23.6378 3.95496C26.0805 5.51933 30.5773 8.82219 31.7035 11.8198C33.461 16.4955 26.7733 15.8548 24.6224 15.52C21.6679 15.0608 18.8074 14.004 15.9979 12.9076H15.9974Z" fill="black"/>
<path d="M150.794 25.3857C150.794 26.1679 150.329 26.6371 149.554 26.6371H144.281C143.506 26.6371 143.041 26.1679 143.041 25.3857V6.6148C143.041 5.83268 143.506 5.3634 144.281 5.3634H149.802C150.36 5.3634 150.577 5.67625 150.98 6.23938L154.826 11.7768C154.95 11.9645 155.074 11.9958 155.167 11.9958C155.353 11.9958 155.446 11.8707 155.446 11.683V6.6148C155.446 5.83268 155.912 5.3634 156.687 5.3634H161.959C162.735 5.3634 163.2 5.83268 163.2 6.6148V25.3857C163.2 26.1679 162.735 26.6371 161.959 26.6371H156.842C156.191 26.6371 155.756 25.9489 155.322 25.417L151.414 20.4427C151.29 20.255 151.166 20.2237 151.073 20.2237C150.887 20.2237 150.794 20.3489 150.794 20.5366V25.3857Z" fill="black"/>
<path d="M140.557 25.3857C140.557 26.1679 140.091 26.6371 139.316 26.6371H134.044C133.268 26.6371 132.803 26.1679 132.803 25.3857V6.6148C132.803 5.83268 133.268 5.3634 134.044 5.3634H139.316C140.091 5.3634 140.557 5.83268 140.557 6.6148V25.3857Z" fill="black"/>
<path d="M130.934 24.76C130.996 24.8539 131.09 25.0103 131.09 25.3857C131.09 26.1679 130.624 26.6371 129.849 26.6371H124.297C124.018 26.6371 123.77 26.6059 123.522 26.512C123.367 26.4494 123.212 26.3243 123.088 26.1679L120.514 22.2573H119.211C118.994 22.2573 118.901 22.3511 118.901 22.5701V25.3857C118.901 26.1679 118.436 26.6371 117.66 26.6371H112.388C111.612 26.6371 111.147 26.1679 111.147 25.3857V6.6148C111.147 5.83268 111.612 5.3634 112.388 5.3634H122.312C127.585 5.3634 130.996 8.96117 130.996 13.0282C130.996 15.4997 130.004 18.1589 127.337 19.1601L130.934 24.76ZM122.157 14.436C122.747 14.436 123.243 13.779 123.243 13.1846C123.243 12.5902 122.747 11.9332 122.157 11.9332H119.211C118.994 11.9332 118.901 12.0271 118.901 12.2461V14.1232C118.901 14.3422 118.994 14.436 119.211 14.436H122.157Z" fill="black"/>
<path d="M109.761 24.8539C109.823 25.0416 109.886 25.2606 109.886 25.4483C109.886 26.1053 109.451 26.6371 108.738 26.6371H102.969C102.194 26.6371 101.605 26.3243 101.295 25.5109L100.55 23.6964C100.395 23.2897 100.209 22.883 99.7128 22.883H95.4328C94.9365 22.883 94.7504 23.2897 94.5954 23.6964L93.851 25.5109C93.5099 26.3243 92.9516 26.6371 92.1762 26.6371H86.4075C85.6942 26.6371 85.26 26.1053 85.26 25.4483C85.26 25.2606 85.291 25.0416 85.3841 24.8539L92.3003 6.6148C92.5794 5.89525 93.3858 5.3634 94.1612 5.3634H100.984C101.76 5.3634 102.566 5.89525 102.845 6.6148L109.761 24.8539ZM96.3632 16.4695C96.3322 16.5321 96.3322 16.5947 96.3322 16.6573C96.3322 16.7511 96.3632 16.8137 96.3942 16.845C96.4562 16.9075 96.5183 16.9388 96.6423 16.9388H98.5032C98.6893 16.9388 98.8133 16.845 98.8133 16.6573C98.8133 16.5634 98.7823 16.4383 98.7513 16.3444L97.8829 13.3723C97.8519 13.2472 97.7588 13.1533 97.5728 13.1533C97.3867 13.1533 97.2936 13.2472 97.2626 13.3723L96.3632 16.4695Z" fill="black"/>
<path d="M75.9412 19.4416C75.9412 19.2226 75.8482 19.1288 75.6311 19.1288H71.5992C71.3821 19.1288 71.289 19.2226 71.289 19.4416V25.3857C71.289 26.1679 70.8238 26.6371 70.0484 26.6371H64.776C64.0006 26.6371 63.5354 26.1679 63.5354 25.3857V6.6148C63.5354 5.83268 64.0006 5.3634 64.776 5.3634H70.0484C70.8238 5.3634 71.289 5.83268 71.289 6.6148V11.6204C71.289 11.8394 71.3821 11.9332 71.5992 11.9332H75.6311C75.8482 11.9332 75.9412 11.8394 75.9412 11.6204V6.6148C75.9412 5.83268 76.4064 5.3634 77.1818 5.3634H82.4542C83.2296 5.3634 83.6948 5.83268 83.6948 6.6148V25.3857C83.6948 26.1679 83.2296 26.6371 82.4542 26.6371H77.1818C76.4064 26.6371 75.9412 26.1679 75.9412 25.3857V19.4416Z" fill="black"/>
<path d="M41.6309 20.1609C41.6309 19.2224 41.941 18.9408 42.8714 18.9408H48.268C48.9193 18.9408 49.2294 19.066 49.3225 19.4101C49.5396 20.1609 50.408 20.9431 51.7416 20.9431C53.0752 20.9431 53.6335 20.4425 53.6335 19.9419C53.6335 18.1274 47.7717 19.0973 44.143 16.9386C42.5613 16 41.5999 14.4045 41.5999 11.9643C41.5999 7.64697 46.097 4.80005 51.7416 4.80005C56.983 4.80005 61.0459 8.17882 61.0459 11.2135C61.0459 12.152 60.7358 12.4649 59.8054 12.4649H54.2227C53.4784 12.4649 53.2923 12.2146 53.1993 11.9017C53.1372 11.6514 52.8271 11.057 51.4314 11.057C50.2529 11.057 49.3535 11.4324 49.3535 11.9643C49.3535 13.6537 54.688 12.7777 58.5958 14.6235C60.1775 15.3743 61.6662 17.2827 61.6662 19.5352C61.6662 24.1967 57.6343 27.2 51.4314 27.2C46.4381 27.2 41.6309 24.3844 41.6309 20.1609Z" fill="black"/>
</svg>
