<svg width="29" height="29" viewBox="0 0 29 29" fill="none" xmlns="http://www.w3.org/2000/svg">
<path d="M24.0051 17C24.0076 17.4077 23.8837 17.8062 23.6505 18.1407C23.4172 18.4751 23.0861 18.729 22.7026 18.8675L16.2551 21.25L13.8801 27.7025C13.7394 28.0846 13.485 28.4143 13.151 28.6473C12.8171 28.8802 12.4197 29.0051 12.0126 29.0051C11.6054 29.0051 11.2081 28.8802 10.8741 28.6473C10.5402 28.4143 10.2857 28.0846 10.1451 27.7025L7.75508 21.25L1.30258 18.875C0.920493 18.7344 0.59074 18.4799 0.357814 18.146C0.124888 17.812 0 17.4147 0 17.0075C0 16.6003 0.124888 16.203 0.357814 15.869C0.59074 15.5351 0.920493 15.2806 1.30258 15.14L7.75508 12.75L10.1301 6.2975C10.2707 5.91541 10.5252 5.58566 10.8591 5.35273C11.1931 5.11981 11.5904 4.99492 11.9976 4.99492C12.4047 4.99492 12.8021 5.11981 13.136 5.35273C13.47 5.58566 13.7244 5.91541 13.8651 6.2975L16.2551 12.75L22.7076 15.125C23.0914 15.2647 23.4223 15.5202 23.6547 15.856C23.8871 16.1919 24.0095 16.5916 24.0051 17ZM17.0051 5H19.0051V7C19.0051 7.26522 19.1104 7.51957 19.298 7.70711C19.4855 7.89464 19.7399 8 20.0051 8C20.2703 8 20.5247 7.89464 20.7122 7.70711C20.8997 7.51957 21.0051 7.26522 21.0051 7V5H23.0051C23.2703 5 23.5247 4.89464 23.7122 4.70711C23.8997 4.51957 24.0051 4.26522 24.0051 4C24.0051 3.73478 23.8997 3.48043 23.7122 3.29289C23.5247 3.10536 23.2703 3 23.0051 3H21.0051V1C21.0051 0.734784 20.8997 0.48043 20.7122 0.292893C20.5247 0.105357 20.2703 0 20.0051 0C19.7399 0 19.4855 0.105357 19.298 0.292893C19.1104 0.48043 19.0051 0.734784 19.0051 1V3H17.0051C16.7399 3 16.4855 3.10536 16.298 3.29289C16.1104 3.48043 16.0051 3.73478 16.0051 4C16.0051 4.26522 16.1104 4.51957 16.298 4.70711C16.4855 4.89464 16.7399 5 17.0051 5ZM28.0051 9H27.0051V8C27.0051 7.73478 26.8997 7.48043 26.7122 7.29289C26.5247 7.10536 26.2703 7 26.0051 7C25.7399 7 25.4855 7.10536 25.298 7.29289C25.1104 7.48043 25.0051 7.73478 25.0051 8V9H24.0051C23.7399 9 23.4855 9.10536 23.298 9.29289C23.1104 9.48043 23.0051 9.73478 23.0051 10C23.0051 10.2652 23.1104 10.5196 23.298 10.7071C23.4855 10.8946 23.7399 11 24.0051 11H25.0051V12C25.0051 12.2652 25.1104 12.5196 25.298 12.7071C25.4855 12.8946 25.7399 13 26.0051 13C26.2703 13 26.5247 12.8946 26.7122 12.7071C26.8997 12.5196 27.0051 12.2652 27.0051 12V11H28.0051C28.2703 11 28.5247 10.8946 28.7122 10.7071C28.8997 10.5196 29.0051 10.2652 29.0051 10C29.0051 9.73478 28.8997 9.48043 28.7122 9.29289C28.5247 9.10536 28.2703 9 28.0051 9Z" fill="white"/>
</svg>
