<svg width="61" height="78" viewBox="0 0 61 78" fill="none" xmlns="http://www.w3.org/2000/svg">
<path d="M19.6905 1.02906C21.5047 1.05249 23.387 1.13659 24.6687 1.16942C31.2229 1.33737 37.8517 1.93901 44.3218 2.31681C45.738 2.39935 47.0534 2.38521 48.4425 2.42803C49.7881 2.46952 51.1407 2.5653 52.417 2.88685C53.708 3.21217 54.936 3.77202 56.0233 4.74597C57.1075 5.71721 58 7.05305 58.6948 8.85413C59.2153 10.2039 59.3864 11.9268 59.3787 13.7515C59.3708 15.5951 59.1786 17.6364 58.9126 19.6718C58.6463 21.7095 58.3022 23.7664 57.9864 25.6391C57.6685 27.5236 57.3821 29.2048 57.2203 30.5311C56.7957 34.0137 56.4511 37.5067 56.1001 41.0152C55.7934 44.0813 55.482 47.1583 55.109 50.2326L54.9447 51.5501C54.6459 53.892 54.2343 58.188 53.5995 62.2619C53.2805 64.308 52.8999 66.3353 52.4395 68.0792C52.0156 69.6853 51.4987 71.1545 50.8379 72.1728L50.7042 72.3701C48.697 75.1945 45.2676 76.2101 41.89 76.5497C38.5018 76.8901 34.8336 76.5748 32.1594 76.4765C25.5618 76.2324 17.0165 75.7029 10.4883 74.7355C7.26678 74.2575 4.98016 73.2751 3.45179 71.8046C1.90538 70.3165 1.2525 68.4426 1.07559 66.4389C0.901059 64.4618 1.18364 62.2926 1.5556 60.1286C1.93587 57.9163 2.40364 55.7364 2.67782 53.5343C4.43694 39.401 5.5944 22.5098 8.70536 8.65685C9.02488 7.23522 9.60048 5.58105 10.5334 4.19048C11.4685 2.79656 12.8243 1.5838 14.7044 1.26278C16.013 1.03978 17.8826 1.00574 19.6905 1.02906ZM18.1578 5.74305C15.8581 5.6738 14.9883 6.19936 14.4959 6.89373C14.21 7.29685 13.9879 7.84444 13.7881 8.60322C13.5873 9.36627 13.4302 10.249 13.228 11.3164L13.2287 11.317C11.6031 19.9194 10.5492 28.6548 9.50651 37.4326C8.4659 46.1928 7.43539 54.9972 5.85844 63.688C5.58178 65.3934 5.71888 66.5324 6.04846 67.3082C6.36665 68.0575 6.90943 68.5735 7.68312 68.9585C8.48387 69.3572 9.50827 69.6026 10.7273 69.7823C11.9626 69.9646 13.242 70.0609 14.6449 70.2223C17.8428 70.589 21.1969 70.8724 24.4098 71.0562L28.091 71.2704C32.0495 71.4901 36.608 71.6731 39.674 71.3457H39.6746C40.6009 71.2474 41.7102 70.6392 42.4077 69.9152L42.4454 69.8758C43.2258 69.0426 43.8496 67.5469 44.3337 65.7688C44.8073 64.0293 45.1051 62.1897 45.3288 60.7907L45.5214 59.5301C45.9522 56.5787 46.26 53.5599 46.5483 50.516C46.877 47.0469 47.1807 43.536 47.6116 40.1028L47.8294 38.4284C48.9625 30.0152 50.7036 21.0376 51.2464 12.9358V12.9352C51.3691 11.1066 51.1421 9.7679 50.5618 8.85881C50.0513 8.05895 49.167 7.43976 47.5713 7.19827L47.2422 7.15529C45.7866 6.99108 44.2706 6.95786 42.7149 6.95C41.3687 6.94322 39.9772 6.95549 38.6193 6.90966L38.04 6.88647C31.3393 6.57094 24.7772 5.94152 18.1578 5.74305Z" fill="black" stroke="black" stroke-width="2.04546"/>
<path d="M43.1921 70.5748C42.3614 71.4615 41.0153 72.227 39.7845 72.3578C35.5896 72.8059 28.7353 72.3253 24.3534 72.0731C21.1198 71.888 17.7491 71.6012 14.5307 71.2337C9.14196 70.6161 3.67282 70.7876 4.85146 63.5201C7.99593 46.2015 8.95932 28.4087 12.2256 11.1249C13.015 6.9475 13.2803 4.57062 18.1906 4.71849C24.7905 4.91856 31.484 5.55137 38.0904 5.86234C41.111 6.00369 44.3316 5.79493 47.3586 6.13634C51.4035 6.59083 52.5256 9.17862 52.2689 13.0016C51.6883 21.6674 49.7268 31.4641 48.6287 40.2278C47.7719 47.0539 47.4218 54.1823 46.3409 60.9497C45.8952 63.7354 45.121 68.5151 43.1943 70.5721L43.1921 70.5748ZM35.0895 7.59334C34.448 7.12798 28.5678 7.06052 27.9742 7.51069C27.1913 8.10439 27.8676 9.50479 28.6135 9.72662C28.9331 9.82229 31.9537 10.0724 32.4756 10.0724C33.3106 10.0702 34.2305 9.58961 35.1134 9.74188C35.4461 9.2591 35.5505 7.92825 35.0895 7.59551V7.59334ZM35.4352 58.6076C35.4548 58.6076 42.7289 58.1814 43.514 56.1634L48.3416 16.3701C48.4677 14.7 47.948 12.9429 46.3801 12.1622C43.7292 10.8466 35.8158 11.3467 32.4756 11.1945C27.9306 10.9857 22.4332 10.2203 17.9709 10.4138C17.1533 10.4486 16.1116 10.7639 15.4984 11.3097C13.6934 12.9146 13.3694 20.8933 12.9454 23.6289C11.5232 32.7993 9.5225 43.6202 9.32027 52.8428C9.27464 54.9064 9.63999 56.5527 11.845 57.0789C18.1058 58.5729 28.6418 58.2727 35.4331 58.6055L35.4352 58.6076ZM23.3009 60.3517C17.5643 61.1911 18.0775 69.2697 24.0316 68.972C30.6946 68.6392 28.6961 59.5601 23.3009 60.3517Z" fill="#FFE30A"/>
<path d="M45.5384 71.7944C45.3057 71.5836 46.5735 70.1897 46.767 69.7985C49.0134 65.2555 49.0895 56.1439 49.7506 50.8922C51.2859 38.6795 53.8498 24.849 54.5152 12.7211C54.5913 11.3512 54.4739 10.0029 54.376 8.6568C55.359 9.68541 55.9374 11.5925 55.9287 12.993C55.9048 17.6358 54.2695 24.4119 53.678 29.283C52.321 40.4475 51.2468 51.7598 49.7115 62.92C49.3092 65.8492 49.1657 71.288 45.5384 71.7924V71.7944Z" fill="black"/>
<path d="M35.4352 58.6077C28.6439 58.2772 18.1079 58.5751 11.8472 57.0811C9.6421 56.5549 9.27675 54.9087 9.32244 52.845C9.52468 43.6224 11.5253 32.8015 12.9475 23.6312C13.3716 20.8955 13.6956 12.9169 15.5005 11.312C16.1159 10.7662 17.1576 10.4508 17.9731 10.4161C22.4354 10.2225 27.9328 10.988 32.4778 11.1967C35.818 11.349 43.7314 10.8488 46.3822 12.1645C47.9501 12.943 48.4698 14.7022 48.3437 16.3723L43.5161 56.1656C43.5161 60.0299 35.4374 58.6099 35.4374 58.6099L35.4352 58.6077ZM11.9016 54.0802C12.6474 55.2284 30.7119 55.672 33.328 55.8047C36.279 55.9547 41.1262 57.9662 41.2936 53.3821C41.7677 41.7327 45.1492 29.2982 45.5341 17.7771C45.6037 15.6721 45.5254 14.5391 43.153 14.2717C38.1535 13.7084 32.269 13.9585 27.1456 13.7215C25.108 13.628 22.7463 13.2104 20.7153 13.1365C19.206 13.0822 17.1054 12.6864 16.6944 14.4695C15.5114 19.6104 15.3961 25.7775 14.1501 31.0053L11.9037 54.078L11.9016 54.0802Z" fill="black"/>
<path d="M23.3009 60.3517C28.6961 59.5623 30.6946 68.6392 24.0315 68.972C18.0753 69.2697 17.5643 61.1911 23.3009 60.3517ZM24.1164 62.6002C23.5379 62.6502 21.8852 63.8528 21.7265 64.4204C21.1328 66.545 25.9409 66.8668 26.3323 65.0858C26.465 64.4834 24.8862 62.5328 24.1164 62.6002Z" fill="black"/>
<path d="M35.0895 7.59334C35.5506 7.92609 35.444 9.25693 35.1134 9.73971C34.2306 9.58744 33.3085 10.0681 32.4756 10.0702C31.9537 10.0702 28.9332 9.82012 28.6135 9.72446C27.8698 9.50263 27.1913 8.10222 27.9742 7.50853C28.5678 7.06059 34.448 7.12798 35.0895 7.59117V7.59334Z" fill="black"/>
<path d="M11.9014 54.0802L14.1478 31.0075C15.3938 25.7797 15.5091 19.6104 16.6921 14.4717C17.103 12.6864 19.2037 13.0822 20.7129 13.1387C22.744 13.2127 25.1056 13.628 27.1432 13.7237C32.2645 13.9608 38.1512 13.7107 43.1506 14.2739C45.5231 14.5414 45.6036 15.6743 45.5318 17.7793C45.1491 29.3005 41.7654 41.7371 41.2913 53.3844C41.1238 57.9684 36.2767 55.9569 33.3257 55.8069C30.7074 55.6742 12.6429 55.2328 11.8992 54.0824L11.9014 54.0802ZM39.2646 29.5223C38.8688 29.1439 37.8837 28.6263 37.3487 28.4915C36.6333 28.311 34.3717 28.4197 34.326 27.8848C36.3245 24.4707 36.4811 16.9682 31.075 17.3423C27.0367 17.6228 26.7214 24.7947 23.503 27.4521C20.4976 29.9333 20.8521 26.9389 18.5253 27.2346C16.2485 27.5238 15.6047 29.357 15.2699 31.2859C14.8306 33.8172 14.1651 38.6035 14.0999 41.0825C14.0281 43.7943 16.0767 46.2385 18.9558 45.6362C19.5451 45.5144 19.8866 44.9968 20.5889 44.9968C22.9745 44.9968 26.767 46.6126 29.3918 46.83C34.5783 47.2628 38.5991 47.2954 39.8952 41.5979C40.3649 39.532 40.9216 37.0399 40.7542 34.9088C40.6954 34.1759 40.5171 33.0821 40.4258 32.1753C40.3302 31.2207 39.9691 30.1899 39.2668 29.5201L39.2646 29.5223Z" fill="black"/>
<path d="M24.1161 62.6003C24.886 62.5329 26.4626 64.4836 26.3321 65.086C25.9406 66.867 21.1325 66.5451 21.7262 64.4205C21.885 63.8529 23.5377 62.6504 24.1161 62.6003Z" fill="black"/>
<path d="M39.2646 29.5221C39.967 30.1919 40.3279 31.2205 40.4237 32.1773C40.515 33.0842 40.6955 34.178 40.752 34.9108C40.9195 37.0398 40.3628 39.5341 39.893 41.6C38.5991 47.2974 34.5783 47.2648 29.3896 46.832C26.7671 46.6124 22.9724 44.9989 20.5868 44.9989C19.8844 44.9989 19.5408 45.5143 18.9537 45.6382C16.0723 46.2384 14.026 43.7941 14.0978 41.0846C14.163 38.6055 14.8284 33.8191 15.2677 31.2879C15.6026 29.3568 16.2463 27.5258 18.5231 27.2366C20.8477 26.9408 20.4933 29.9353 23.5008 27.4541C26.7192 24.7967 27.0345 17.6248 31.0728 17.3443C36.4789 16.9681 36.3223 24.4726 34.3239 27.8868C34.3695 28.4218 36.6333 28.313 37.3466 28.4935C37.8815 28.6284 38.8667 29.1481 39.2624 29.5243L39.2646 29.5221ZM32.9104 40.928C32.1753 40.3713 32.0688 38.96 32.769 38.4032H37.5402C37.6336 38.4032 38.1447 37.8379 38.2012 37.64C38.884 35.237 34.0955 36.1851 33.0256 35.3414C32.3907 34.8412 32.569 33.3516 33.0495 33.3516H38.1012C38.2164 33.3516 38.5861 32.8993 38.5252 32.6644C38.5448 31.5989 36.7355 30.5463 35.857 30.5463H31.3664C29.9159 30.5463 31.9905 27.1844 32.1253 26.8169C32.8799 24.7532 33.8128 21.3217 31.6056 19.9277C29.9747 19.6168 27.7413 26.1166 26.6866 27.5519C25.4906 29.1807 23.7139 30.0158 22.6484 31.6532L22.0873 42.3502C25.8798 43.1896 29.6441 45.1206 33.6214 44.5922C35.1458 44.39 37.477 42.996 37.3966 41.2128L32.906 40.9323L32.9104 40.928ZM19.9301 30.3332C19.3429 29.8265 17.2379 29.7222 17.2031 30.9747C17.5728 32.9102 15.8875 41.4499 16.9073 42.4785C17.3053 42.8808 18.7123 43.0939 19.1776 42.7677C19.456 42.572 19.6104 41.4455 19.6844 41.0302C20.0127 39.1752 20.241 36.2395 20.2932 34.3432C20.3172 33.5299 20.4411 30.7703 19.9301 30.3311V30.3332Z" fill="black"/>
<path d="M32.9105 40.9282C33.7956 41.6001 36.2072 41.0217 37.4011 41.2087C37.4816 42.9918 35.1482 44.3858 33.626 44.588C29.6485 45.1165 25.8843 43.1876 22.0918 42.346L22.6528 31.6491C23.7162 30.0137 25.4951 29.1787 26.6911 27.5478C27.7436 26.1125 29.9791 19.6126 31.6101 19.9236C33.8173 21.3175 32.8866 24.749 32.1298 26.8127C31.995 27.1803 29.9204 30.5422 31.3708 30.5422H35.8614C36.7422 30.5422 38.5493 31.5969 38.5297 32.6603C38.5906 32.8951 38.2209 33.3474 38.1056 33.3474H33.054C32.5713 33.3474 32.3951 34.8371 33.0301 35.3372C34.1 36.181 38.8885 35.2329 38.2057 37.6358C38.1492 37.8337 37.6381 38.3991 37.5446 38.3991H32.7735C32.0733 38.9558 32.1798 40.3671 32.9148 40.9238L32.9105 40.9282Z" fill="#FE604C"/>
<path d="M19.9301 30.3333C20.4412 30.7725 20.315 33.5321 20.2933 34.3454C20.2389 36.2417 20.0106 39.1774 19.6844 41.0323C19.6105 41.4477 19.4538 42.5742 19.1777 42.7699C18.7145 43.0961 17.3075 42.883 16.9074 42.4807C15.8875 41.4521 17.5728 32.9123 17.2031 30.9769C17.2401 29.7243 19.343 29.8287 19.9301 30.3354V30.3333Z" fill="#FE604C"/>
</svg>
