<?xml version="1.0" standalone="no"?>
<!DOCTYPE svg PUBLIC "-//W3C//DTD SVG 1.1//EN" "http://www.w3.org/Graphics/SVG/1.1/DTD/svg11.dtd" >
<svg xmlns="http://www.w3.org/2000/svg" xmlns:xlink="http://www.w3.org/1999/xlink" version="1.1">
<metadata>
Created by FontForge 20190801 at Thu Jan 27 20:31:05 2022
 By www-data
Copyright 2022 Florian Karsten. All rights reserved.
</metadata>
<defs>
<font id="FKScreamerTrialMedium" horiz-adv-x="328" >
  <font-face 
    font-family="FKScreamerTrialMedium"
    font-weight="500"
    font-stretch="condensed"
    units-per-em="1100"
    panose-1="0 0 0 0 0 0 0 0 0 0"
    ascent="880"
    descent="-220"
    x-height="640"
    cap-height="830"
    bbox="-26 -177 527 857"
    underline-thickness="55"
    underline-position="-136"
    unicode-range="U+000D-FB02"
  />
<missing-glyph horiz-adv-x="341" 
d="M317 830v-830h-293v830h293zM67 108h10l161 681h-171v-681zM103 41h171v682h-10z" />
    <glyph glyph-name="fi" unicode="fi" horiz-adv-x="383" 
d="M8 640h46v83q0 112 99 112q36 0 71 -16l-8 -57h-18q-16 0 -23 -8t-7 -27v-87h51v-74h-51v-566h-114v566h-46v74zM244 663v40h122v-40h-122zM248 0v640h113v-640h-113z" />
    <glyph glyph-name="fl" unicode="fl" horiz-adv-x="383" 
d="M8 640h46v83q0 112 99 112q36 0 71 -16l-8 -57h-18q-16 0 -23 -8t-7 -27v-87h51v-74h-51v-566h-114v566h-46v74zM248 0v830h113v-830h-113z" />
    <glyph glyph-name="f_f.liga" unicode="ff" horiz-adv-x="419" 
d="M8 640h46v81q0 112 98 112q36 0 71 -16l-8 -57h-17q-17 0 -24 -7.5t-7 -26.5v-86h82v81q0 112 99 112q36 0 71 -16l-8 -57h-18q-16 0 -23 -9.5t-7 -35.5v-75h51v-74h-51v-566h-114v566h-82v-566h-113v566h-46v74z" />
    <glyph glyph-name="f_t.liga" unicode="ft" horiz-adv-x="419" 
d="M187 636q59 0 79 31t26 100h71v-127h51v-74h-51v-566h-114v566h-82v-566h-113v566h-46v74h46v81q0 112 98 112q36 0 71 -16l-8 -57h-17q-17 0 -24 -7.5t-7 -26.5v-90h20z" />
    <glyph glyph-name="k_t.liga" unicode="kt" horiz-adv-x="519" 
d="M23 830h113v-449h10l79 259h99v-10l-93 -304v-10l93 -306v-10h-104l-74 243h-10v-243h-113v830zM349 0v636q36 24 39 134h75v-130h51v-74h-51v-566h-114z" />
    <glyph glyph-name="t_t.liga" unicode="tt" horiz-adv-x="419" 
d="M8 635q46 4 64 35t22 97h73v-131h18q59 0 79 30.5t26 100.5h73v-127h51v-74h-51v-566h-114v566h-82v-566h-113v566h-46v69z" />
    <glyph glyph-name=".notdef" horiz-adv-x="341" 
d="M317 830v-830h-293v830h293zM67 108h10l161 681h-171v-681zM103 41h171v682h-10z" />
    <glyph glyph-name=".null" horiz-adv-x="0" 
 />
    <glyph glyph-name="nonmarkingreturn" horiz-adv-x="366" 
 />
    <glyph glyph-name="CR" unicode="&#xd;" horiz-adv-x="0" 
 />
    <glyph glyph-name="space" unicode=" " horiz-adv-x="114" 
 />
    <glyph glyph-name="exclam" unicode="!" horiz-adv-x="146" 
d="M32 154h82v-154h-82v154zM24 640v190h99v-190l-27 -416h-46z" />
    <glyph glyph-name="quotedbl" unicode="&#x22;" horiz-adv-x="215" 
d="M17 830h77v-10l-14 -205h-45l-18 205v10zM121 820v10h78v-10l-19 -205h-45z" />
    <glyph glyph-name="quotesingle" unicode="'" horiz-adv-x="118" 
d="M17 830h85v-10l-20 -205h-46l-19 205v10z" />
    <glyph glyph-name="parenleft" unicode="(" horiz-adv-x="152" 
d="M110 830h38v-10q-80 -213 -80 -460t80 -460v-10h-38q-85 215 -85 470t85 470z" />
    <glyph glyph-name="parenright" unicode=")" horiz-adv-x="152" 
d="M42 830q85 -215 85 -470t-85 -470h-39v10q81 216 81 460t-81 460v10h39z" />
    <glyph glyph-name="comma" unicode="," horiz-adv-x="130" 
d="M25 154h80v-134l-46 -99h-34v233z" />
    <glyph glyph-name="hyphen" unicode="-" horiz-adv-x="196" 
d="M23 345h150v-42h-150v42z" />
    <glyph glyph-name="period" unicode="." horiz-adv-x="133" 
d="M25 154h83v-154h-83v154z" />
    <glyph glyph-name="slash" unicode="/" horiz-adv-x="175" 
d="M115 830h42v-10l-98 -820h-42v10z" />
    <glyph glyph-name="zero" unicode="0" horiz-adv-x="343" 
d="M18 612q0 111 40 168t113 57q74 0 114 -56.5t40 -168.5v-394q0 -112 -40 -168.5t-114 -56.5q-73 0 -113 57t-40 168v394zM139 122q0 -48 32 -48q33 0 33 48v586q0 48 -33 48q-32 0 -32 -48v-586z" />
    <glyph glyph-name="one" unicode="1" horiz-adv-x="227" 
d="M8 723q50 1 72 27t26 80h97v-830h-115v654h-80v69z" />
    <glyph glyph-name="two" unicode="2" horiz-adv-x="309" 
d="M15 679q0 75 37.5 117.5t104.5 42.5q65 0 102.5 -42.5t37.5 -114.5q0 -65 -18 -133t-55 -170l-93 -286h165v-93h-283v76l127 382q47 135 47 244q0 55 -34 55q-30 0 -30 -43v-46q0 -66 -8 -100h-100v111z" />
    <glyph glyph-name="three" unicode="3" horiz-adv-x="312" 
d="M147 464q35 0 35 49v195q0 49 -30 49q-31 0 -31 -49v-35q0 -72 -8 -106h-98v90q0 88 36.5 135t105.5 47q70 0 105 -47.5t35 -134.5v-58q0 -118 -68 -171v-10q71 -49 71 -168v-73q0 -87 -36 -136t-107 -49t-108 49t-37 137v95h100q8 -34 8 -100v-50q0 -49 32 -49
q30 0 30 48v206q0 49 -35 49h-54v87h54z" />
    <glyph glyph-name="four" unicode="4" horiz-adv-x="298" 
d="M7 203v74l121 553h146v-830h-111v203h-156zM88 296h75v319h-10z" />
    <glyph glyph-name="five" unicode="5" horiz-adv-x="316" 
d="M15 391l12 439h272v-93h-171l-7 -240h10q22 43 70 43t75 -40.5t27 -116.5v-181q0 -210 -147 -210q-68 0 -104.5 47.5t-36.5 125.5v128h100q8 -34 8 -100v-73q0 -46 31 -46t31 46v292q0 42 -30 42q-36 0 -41 -63h-99z" />
    <glyph glyph-name="six" unicode="6" horiz-adv-x="331" 
d="M18 609q0 229 151 229q67 0 103 -48.5t36 -130.5v-91h-101q-8 34 -8 100v45q0 44 -30 44q-31 0 -31 -46v-258h10q21 38 69 38q44 0 72 -40.5t28 -112.5v-157q0 -88 -37.5 -138.5t-107.5 -50.5q-154 0 -154 229v388zM138 121q0 -47 31 -47q32 0 32 47v241q0 47 -32 47
q-31 0 -31 -47v-241z" />
    <glyph glyph-name="seven" unicode="7" horiz-adv-x="293" 
d="M10 830h272v-77l-116 -753h-113v10l113 726h-156v94z" />
    <glyph glyph-name="eight" unicode="8" horiz-adv-x="326" 
d="M12 250q0 117 67 168v10q-64 51 -64 164v64q0 86 38.5 134.5t109.5 48.5t109.5 -48.5t38.5 -134.5v-64q0 -112 -65 -164v-10q67 -51 67 -168v-71q0 -87 -39.5 -137t-110.5 -50q-72 0 -111.5 49.5t-39.5 137.5v71zM131 121q0 -47 32 -47q31 0 31 47v211q0 46 -31 46
q-32 0 -32 -46v-211zM131 508q0 -47 32 -47q31 0 31 47v202q0 47 -31 47q-32 0 -32 -47v-202z" />
    <glyph glyph-name="nine" unicode="9" horiz-adv-x="331" 
d="M314 221q0 -229 -152 -229q-67 0 -103 48.5t-36 130.5v91h102q7 -30 7 -100v-45q0 -44 30 -44q31 0 31 46v258h-10q-19 -38 -68 -38q-44 0 -72.5 40.5t-28.5 112.5v157q0 87 37.5 138t107.5 51q155 0 155 -229v-388zM130 468q0 -47 32 -47q31 0 31 47v241q0 47 -31 47
q-32 0 -32 -47v-241z" />
    <glyph glyph-name="colon" unicode=":" horiz-adv-x="131" 
d="M25 154h81v-154h-81v154zM25 487v153h81v-153h-81z" />
    <glyph glyph-name="semicolon" unicode=";" horiz-adv-x="131" 
d="M25 640h81v-153h-81v153zM25 -79v233h81v-134l-47 -99h-34z" />
    <glyph glyph-name="question" unicode="?" horiz-adv-x="304" 
d="M131 224q-16 139 21 276q33 134 33 211q0 49 -34 49q-35 0 -35 -49v-41q0 -66 -8 -100h-92v120q0 69 36 109t102 40t101 -39t35 -107q0 -98 -68 -244q-43 -103 -49 -225h-42zM111 0v154h83v-154h-83z" />
    <glyph glyph-name="A" unicode="A" horiz-adv-x="326" 
d="M83 830h160l75 -820v-10h-115l-13 212h-65l-13 -212h-103v10zM131 306h53l-21 319h-10z" />
    <glyph glyph-name="B" unicode="B" horiz-adv-x="331" 
d="M137 830q82 0 132 -50t50 -156v-17q0 -130 -90 -181v-10q93 -44 93 -180v-25q0 -108 -50 -159.5t-132 -51.5h-116v830h113zM139 81h10q54 0 54 107v83q0 107 -54 107h-10v-297zM139 458h8q54 0 54 101v90q0 101 -54 101h-8v-292z" />
    <glyph glyph-name="C" unicode="C" horiz-adv-x="343" 
d="M17 583q0 127 42.5 191t121.5 64q72 0 109.5 -54.5t37.5 -149.5v-104h-108q-8 34 -8 100v78q0 47 -31 47q-33 0 -33 -49v-582q0 -49 33 -49q31 0 31 47v83q0 66 8 100h108v-109q0 -95 -37.5 -149.5t-109.5 -54.5q-79 0 -121.5 64t-42.5 191v336z" />
    <glyph glyph-name="D" unicode="D" horiz-adv-x="339" 
d="M136 830q93 0 139.5 -62.5t46.5 -197.5v-310q0 -260 -186 -260h-112v830h112zM139 84h12q54 0 54 70v525q0 71 -54 71h-12v-666z" />
    <glyph glyph-name="E" unicode="E" horiz-adv-x="275" 
d="M24 830h238v-93h-120v-269h105v-93h-105v-282h120v-93h-238v830z" />
    <glyph glyph-name="F" unicode="F" horiz-adv-x="265" 
d="M24 0v830h230v-93h-112v-272h99v-93h-99v-372h-118z" />
    <glyph glyph-name="G" unicode="G" horiz-adv-x="349" 
d="M17 589q0 123 42 186t120 63q73 0 111 -54t38 -147v-107h-109q-8 34 -8 100v78q0 47 -31 47q-33 0 -33 -49v-577q0 -49 33 -49q31 0 31 47v261h117v-388h-64l-15 62h-10q-15 -69 -85 -69q-62 0 -99.5 58t-37.5 165v373z" />
    <glyph glyph-name="H" unicode="H" horiz-adv-x="342" 
d="M24 830h116v-364h62v364h116v-830h-116v373h-62v-373h-116v830z" />
    <glyph glyph-name="I" unicode="I" horiz-adv-x="165" 
d="M24 830h118v-830h-118v830z" />
    <glyph glyph-name="J" unicode="J" horiz-adv-x="314" 
d="M115 335q6 -36 6 -93v-132q0 -41 27 -41t27 40v721h117v-674q0 -76 -35 -120t-104 -44t-104 44t-35 120v179h101z" />
    <glyph glyph-name="K" unicode="K" horiz-adv-x="335" 
d="M24 0v830h115l-3 -332h10l76 332h107v-10l-94 -400v-10l94 -400v-10h-110l-73 318h-10l3 -318h-115z" />
    <glyph glyph-name="L" unicode="L" horiz-adv-x="265" 
d="M24 830h118v-737h113v-93h-231v830z" />
    <glyph glyph-name="M" unicode="M" horiz-adv-x="458" 
d="M24 830h131l69 -551h10l69 551h131v-830h-103l5 468h-10l-62 -468h-70l-62 468h-10l5 -468h-103v830z" />
    <glyph glyph-name="N" unicode="N" horiz-adv-x="341" 
d="M24 830h110l77 -488h10l-13 488h109v-830h-110l-77 488h-10l13 -488h-109v830z" />
    <glyph glyph-name="O" unicode="O" horiz-adv-x="364" 
d="M17 583q0 126 43 190.5t122 64.5q78 0 121.5 -65t43.5 -190v-336q0 -125 -43.5 -190t-121.5 -65q-79 0 -122 64.5t-43 190.5v336zM148 125q0 -50 34 -50t34 50v580q0 50 -34 50t-34 -50v-580z" />
    <glyph glyph-name="P" unicode="P" 
d="M137 830q83 0 133.5 -57.5t50.5 -178.5v-18q0 -120 -49.5 -178t-131.5 -58v-340h-116v830h113zM140 420h8q54 0 54 101v128q0 101 -54 101h-8v-330z" />
    <glyph glyph-name="Q" unicode="Q" horiz-adv-x="365" 
d="M17 586q0 124 43.5 188t122.5 64q78 0 121.5 -64t43.5 -188v-318q0 -181 -91 -233q3 -13 18 -13h56v-74h-60q-80 0 -92 68q-77 2 -119.5 65.5t-42.5 186.5v318zM148 149q0 -50 35 -50q34 0 34 50v556q0 50 -34 50q-35 0 -35 -50v-556z" />
    <glyph glyph-name="R" unicode="R" horiz-adv-x="330" 
d="M139 830q82 0 132 -55t50 -160v-18q0 -144 -89 -199v-10q37 -21 50.5 -53.5t15.5 -97.5l3 -112q3 -85 19 -115v-10h-113q-13 36 -15 108l-5 172q-3 67 -48 67v-347h-115v830h115zM139 428h8q55 0 55 107v107q0 108 -55 108h-8v-322z" />
    <glyph glyph-name="S" unicode="S" horiz-adv-x="311" 
d="M114 270q8 -34 8 -97v-58q0 -41 31 -41q35 0 35 57q0 91 -71 245l-24 46q-3 6 -13.5 28t-13.5 29t-12 26.5t-12.5 28.5t-10 26.5t-9 29.5t-6 28t-4.5 31t-1 31q0 73 38.5 115.5t106.5 42.5q67 0 103.5 -41.5t36.5 -113.5v-113h-98q-8 34 -8 97v48q0 41 -31 41
q-35 0 -35 -57q0 -79 64 -207l23 -47q90 -184 90 -292q0 -75 -38.5 -118t-106.5 -43t-104 41.5t-36 117.5v119h98z" />
    <glyph glyph-name="T" unicode="T" horiz-adv-x="307" 
d="M10 830h288v-93h-85v-737h-118v737h-85v93z" />
    <glyph glyph-name="U" unicode="U" horiz-adv-x="338" 
d="M140 115q0 -40 31 -40t31 40v715h114v-658q0 -85 -38 -132.5t-109 -47.5q-70 0 -108 47.5t-38 132.5v658h117v-715z" />
    <glyph glyph-name="V" unicode="V" horiz-adv-x="321" 
d="M87 0l-78 820v10h114l38 -568h10l38 568h103v-10l-78 -820h-147z" />
    <glyph glyph-name="W" unicode="W" horiz-adv-x="462" 
d="M199 830h78l41 -542h10l29 542h97v-10l-60 -820h-117l-34 452h-10l-34 -452h-130l-60 820v10h109l30 -542h10z" />
    <glyph glyph-name="X" unicode="X" horiz-adv-x="323" 
d="M210 830h100v-10l-53 -396v-10l54 -404v-10h-110l-40 311h-10l-40 -311h-99v10l53 404v10l-52 396v10h109l39 -303h10z" />
    <glyph glyph-name="Y" unicode="Y" horiz-adv-x="325" 
d="M221 830h99v-10l-98 -480v-340h-118v340l-99 480v10h112l46 -299h10z" />
    <glyph glyph-name="Z" unicode="Z" horiz-adv-x="287" 
d="M12 0v76l140 661h-137v93h260v-76l-141 -661h138v-93h-260z" />
    <glyph glyph-name="bracketleft" unicode="[" horiz-adv-x="132" 
d="M26 830h103v-40h-60v-860h60v-40h-103v940z" />
    <glyph glyph-name="bracketright" unicode="]" horiz-adv-x="122" 
d="M106 830v-940h-103v40h60v860h-60v40h103z" />
    <glyph glyph-name="a" unicode="a" horiz-adv-x="310" 
d="M191 0v43h-10q-17 -50 -74 -50q-43 0 -70 31.5t-28 88.5l-1 25q1 113 84 188l49 50q23 24 31.5 45.5t8.5 58.5v49q0 41 -28 41q-30 0 -30 -41v-31q0 -66 -7 -95h-97v100q0 69 37 106.5t102 37.5q64 0 98 -36t34 -103v-508h-99zM118 126q0 -50 32 -50q31 0 31 46v208h-10
q-5 -18 -19 -42l-9 -17q-25 -43 -25 -117v-28z" />
    <glyph glyph-name="b" unicode="b" 
d="M23 0v830h113v-218h10q18 33 62 33q48 0 76.5 -44t28.5 -127v-308q0 -83 -28.5 -127t-76.5 -44q-56 0 -73 49h-10l-10 -44h-92zM136 121q0 -44 31 -44t31 44v405q0 44 -31 44t-31 -44v-405z" />
    <glyph glyph-name="c" unicode="c" horiz-adv-x="310" 
d="M15 435q0 98 37 155t108 57q69 0 103.5 -52t34.5 -134v-63h-99q-8 34 -8 97v35q0 40 -29 40q-28 0 -28 -40v-420q0 -40 28 -40q29 0 29 40v40q0 66 8 100h99v-71q0 -82 -34.5 -134t-103.5 -52q-71 0 -108 57t-37 155v230z" />
    <glyph glyph-name="d" unicode="d" 
d="M306 0h-103v44h-10q-17 -49 -72 -49q-49 0 -77.5 44t-28.5 127v308q0 83 28.5 127t77.5 44q45 0 61 -33h10v218h114v-830zM130 121q0 -44 31 -44t31 44v405q0 44 -31 44t-31 -44v-405z" />
    <glyph glyph-name="e" unicode="e" horiz-adv-x="314" 
d="M15 438q0 96 37 152.5t110 56.5q69 0 103.5 -52t34.5 -132v-153h-168v-196q0 -44 30 -44q31 0 31 44v61q0 66 8 100h99v-98q0 -80 -34.5 -132t-103.5 -52q-73 0 -110 56.5t-37 152.5v236zM132 384h61v142q0 44 -31 44q-30 0 -30 -44v-142z" />
    <glyph glyph-name="f" unicode="f" horiz-adv-x="225" 
d="M8 640h46v83q0 112 99 112q36 0 71 -16l-8 -57h-18q-16 0 -23 -8t-7 -27v-87h51v-74h-51v-566h-114v566h-46v74z" />
    <glyph glyph-name="g" unicode="g" 
d="M306 -6q0 -80 -35 -125.5t-105 -45.5t-105.5 44.5t-35.5 121.5v62h100q7 -28 7 -91v-19q0 -42 30 -42t30 43v177h-10q-17 -32 -61 -32q-49 0 -77.5 43.5t-28.5 125.5v220q0 82 28.5 125.5t77.5 43.5q55 0 72 -49h10l11 44h92v-646zM130 206q0 -44 31 -44t31 44v313
q0 44 -31 44t-31 -44v-313z" />
    <glyph glyph-name="h" unicode="h" horiz-adv-x="331" 
d="M23 830h113v-224h10q20 39 69 39q43 0 70 -35.5t27 -106.5v-503h-114v519q0 44 -30 44q-32 0 -32 -44v-519h-113v830z" />
    <glyph glyph-name="i" unicode="i" horiz-adv-x="159" 
d="M23 640h113v-640h-113v640zM19 663v40h122v-40h-122z" />
    <glyph glyph-name="j" unicode="j" horiz-adv-x="158" 
d="M136 -59q0 -118 -97 -118q-33 0 -65 16l7 55h12q15 0 22 7.5t7 25.5v713h114v-699zM18 663v40h122v-40h-122z" />
    <glyph glyph-name="k" unicode="k" horiz-adv-x="329" 
d="M23 830h113v-449h10l79 259h99v-10l-93 -304v-10l93 -306v-10h-104l-74 243h-10v-243h-113v830z" />
    <glyph glyph-name="l" unicode="l" horiz-adv-x="159" 
d="M23 830h113v-830h-113v830z" />
    <glyph glyph-name="m" unicode="m" horiz-adv-x="492" 
d="M23 640h98v-45h10q18 50 75 50q54 0 75 -52h10q27 52 83 52q45 0 72 -36.5t27 -108.5v-500h-109v519q0 44 -31 44t-31 -44v-519h-109v519q0 44 -30 44q-32 0 -32 -44v-519h-108v640z" />
    <glyph glyph-name="n" unicode="n" horiz-adv-x="331" 
d="M23 640h102v-44h10q19 49 78 49q47 0 73 -37t26 -105v-503h-114v519q0 44 -30 44q-32 0 -32 -44v-519h-113v640z" />
    <glyph glyph-name="o" unicode="o" horiz-adv-x="332" 
d="M15 435q0 98 39 155t112 57t111.5 -57t38.5 -155v-230q0 -98 -38.5 -155t-111.5 -57t-112 57t-39 155v230zM135 114q0 -44 31 -44t31 44v412q0 44 -31 44t-31 -44v-412z" />
    <glyph glyph-name="p" unicode="p" 
d="M23 640h102v-44h10q17 49 73 49q48 0 76.5 -44t28.5 -127v-308q0 -83 -28.5 -127t-76.5 -44q-44 0 -62 33h-10v-198h-113v810zM136 114q0 -44 31 -44t31 44v405q0 44 -31 44t-31 -44v-405z" />
    <glyph glyph-name="q" unicode="q" 
d="M306 640v-810h-114v198h-10q-16 -33 -61 -33q-49 0 -77.5 44t-28.5 127v308q0 83 28.5 127t77.5 44q55 0 72 -49h10l11 44h92zM130 114q0 -44 31 -44t31 44v405q0 44 -31 44t-31 -44v-405z" />
    <glyph glyph-name="r" unicode="r" horiz-adv-x="298" 
d="M23 640h102v-43h10q18 48 70 48q41 0 62.5 -32.5t21.5 -90.5v-132h-99v136q0 37 -26 37q-28 0 -28 -37v-526h-113v640z" />
    <glyph glyph-name="s" unicode="s" horiz-adv-x="298" 
d="M149 647q63 0 99.5 -37t36.5 -104v-94h-94q-8 32 -8 87v26q0 47 -32 47q-34 0 -34 -51q0 -34 15 -67.5t47 -82.5l15 -21q32 -42 47 -65t31 -64t16 -82q0 -70 -38 -108t-101 -38t-99.5 37.5t-36.5 108.5v96h94q8 -32 8 -91v-27q0 -49 32 -49q34 0 34 55q0 59 -63 153
l-15 21q-30 39 -46 62.5t-31.5 64.5t-15.5 82q0 67 38.5 104t100.5 37z" />
    <glyph glyph-name="t" unicode="t" horiz-adv-x="225" 
d="M8 635q45 4 63 36t22 99h75v-130h51v-74h-51v-566h-114v566h-46v69z" />
    <glyph glyph-name="u" unicode="u" horiz-adv-x="331" 
d="M308 0h-102v48h-10q-19 -53 -78 -53q-47 0 -73 37t-26 105v503h114v-516q0 -44 30 -44q32 0 32 44v516h113v-640z" />
    <glyph glyph-name="v" unicode="v" horiz-adv-x="294" 
d="M187 640h98v-10l-69 -630h-138l-69 630v10h110l29 -429h10z" />
    <glyph glyph-name="w" unicode="w" horiz-adv-x="434" 
d="M335 640h91v-10l-66 -630h-97l-35 382h-10l-34 -382h-110l-66 630v10h103l28 -397h10l36 397h76l37 -397h10z" />
    <glyph glyph-name="x" unicode="x" horiz-adv-x="300" 
d="M199 640h91v-10l-53 -301v-10l55 -309v-10h-100l-41 237h-10l-42 -237h-91v10l55 310v10l-53 300v10h99l40 -228h10z" />
    <glyph glyph-name="y" unicode="y" horiz-adv-x="294" 
d="M187 640h98v-10l-87 -800h-90v10l21 160h-51l-69 630v10h110l29 -429h10z" />
    <glyph glyph-name="z" unicode="z" horiz-adv-x="272" 
d="M9 0v57l137 509h-135v74h252v-57l-137 -509h135v-74h-252z" />
    <glyph glyph-name="braceleft" unicode="{" horiz-adv-x="191" 
d="M34 381q28 0 39.5 12.5t11.5 38.5v316q0 82 82 82h21v-40h-60v-353q0 -67 -57 -72v-10q57 -5 57 -72v-353h60v-40h-21q-82 0 -82 82v316q0 26 -11.5 38.5t-39.5 12.5h-18v42h18z" />
    <glyph glyph-name="braceright" unicode="}" horiz-adv-x="188" 
d="M175 381v-42h-18q-28 0 -39.5 -12.5t-11.5 -38.5v-316q0 -82 -82 -82h-21v40h60v353q0 67 57 72v10q-57 5 -57 72v353h-60v40h21q82 0 82 -82v-316q0 -26 11.5 -38.5t39.5 -12.5h18z" />
    <glyph glyph-name="uni00A0" unicode="&#xa0;" horiz-adv-x="114" 
 />
    <glyph glyph-name="Agrave" unicode="&#xc0;" horiz-adv-x="326" 
d="M83 830h160l75 -820v-10h-115l-13 212h-65l-13 -212h-103v10zM131 306h53l-21 319h-10z" />
    <glyph glyph-name="Aacute" unicode="&#xc1;" horiz-adv-x="326" 
d="M83 830h160l75 -820v-10h-115l-13 212h-65l-13 -212h-103v10zM131 306h53l-21 319h-10z" />
    <glyph glyph-name="Acircumflex" unicode="&#xc2;" horiz-adv-x="326" 
d="M83 830h160l75 -820v-10h-115l-13 212h-65l-13 -212h-103v10zM131 306h53l-21 319h-10z" />
    <glyph glyph-name="Atilde" unicode="&#xc3;" horiz-adv-x="326" 
d="M83 830h160l75 -820v-10h-115l-13 212h-65l-13 -212h-103v10zM131 306h53l-21 319h-10z" />
    <glyph glyph-name="Adieresis" unicode="&#xc4;" horiz-adv-x="326" 
d="M83 830h160l75 -820v-10h-115l-13 212h-65l-13 -212h-103v10zM131 306h53l-21 319h-10z" />
    <glyph glyph-name="Aring" unicode="&#xc5;" horiz-adv-x="326" 
d="M83 830h160l75 -820v-10h-115l-13 212h-65l-13 -212h-103v10zM131 306h53l-21 319h-10z" />
    <glyph glyph-name="AE" unicode="&#xc6;" horiz-adv-x="326" 
d="M83 830h160l75 -820v-10h-115l-13 212h-65l-13 -212h-103v10zM131 306h53l-21 319h-10z" />
    <glyph glyph-name="Ccedilla" unicode="&#xc7;" horiz-adv-x="343" 
d="M17 583q0 127 42.5 191t121.5 64q72 0 109.5 -54.5t37.5 -149.5v-104h-108q-8 34 -8 100v78q0 47 -31 47q-33 0 -33 -49v-582q0 -49 33 -49q31 0 31 47v83q0 66 8 100h108v-109q0 -95 -37.5 -149.5t-109.5 -54.5q-79 0 -121.5 64t-42.5 191v336z" />
    <glyph glyph-name="Egrave" unicode="&#xc8;" horiz-adv-x="275" 
d="M24 830h238v-93h-120v-269h105v-93h-105v-282h120v-93h-238v830z" />
    <glyph glyph-name="Eacute" unicode="&#xc9;" horiz-adv-x="275" 
d="M24 830h238v-93h-120v-269h105v-93h-105v-282h120v-93h-238v830z" />
    <glyph glyph-name="Ecircumflex" unicode="&#xca;" horiz-adv-x="275" 
d="M24 830h238v-93h-120v-269h105v-93h-105v-282h120v-93h-238v830z" />
    <glyph glyph-name="Edieresis" unicode="&#xcb;" horiz-adv-x="275" 
d="M24 830h238v-93h-120v-269h105v-93h-105v-282h120v-93h-238v830z" />
    <glyph glyph-name="Igrave" unicode="&#xcc;" horiz-adv-x="165" 
d="M24 830h118v-830h-118v830z" />
    <glyph glyph-name="Iacute" unicode="&#xcd;" horiz-adv-x="165" 
d="M24 830h118v-830h-118v830z" />
    <glyph glyph-name="Icircumflex" unicode="&#xce;" horiz-adv-x="165" 
d="M24 830h118v-830h-118v830z" />
    <glyph glyph-name="Idieresis" unicode="&#xcf;" horiz-adv-x="165" 
d="M24 830h118v-830h-118v830z" />
    <glyph glyph-name="Eth" unicode="&#xd0;" horiz-adv-x="339" 
d="M136 830q93 0 139.5 -62.5t46.5 -197.5v-310q0 -260 -186 -260h-112v830h112zM139 84h12q54 0 54 70v525q0 71 -54 71h-12v-666z" />
    <glyph glyph-name="Ntilde" unicode="&#xd1;" horiz-adv-x="341" 
d="M24 830h110l77 -488h10l-13 488h109v-830h-110l-77 488h-10l13 -488h-109v830z" />
    <glyph glyph-name="Ograve" unicode="&#xd2;" horiz-adv-x="364" 
d="M17 583q0 126 43 190.5t122 64.5q78 0 121.5 -65t43.5 -190v-336q0 -125 -43.5 -190t-121.5 -65q-79 0 -122 64.5t-43 190.5v336zM148 125q0 -50 34 -50t34 50v580q0 50 -34 50t-34 -50v-580z" />
    <glyph glyph-name="Oacute" unicode="&#xd3;" horiz-adv-x="364" 
d="M17 583q0 126 43 190.5t122 64.5q78 0 121.5 -65t43.5 -190v-336q0 -125 -43.5 -190t-121.5 -65q-79 0 -122 64.5t-43 190.5v336zM148 125q0 -50 34 -50t34 50v580q0 50 -34 50t-34 -50v-580z" />
    <glyph glyph-name="Ocircumflex" unicode="&#xd4;" horiz-adv-x="364" 
d="M17 583q0 126 43 190.5t122 64.5q78 0 121.5 -65t43.5 -190v-336q0 -125 -43.5 -190t-121.5 -65q-79 0 -122 64.5t-43 190.5v336zM148 125q0 -50 34 -50t34 50v580q0 50 -34 50t-34 -50v-580z" />
    <glyph glyph-name="Otilde" unicode="&#xd5;" horiz-adv-x="364" 
d="M17 583q0 126 43 190.5t122 64.5q78 0 121.5 -65t43.5 -190v-336q0 -125 -43.5 -190t-121.5 -65q-79 0 -122 64.5t-43 190.5v336zM148 125q0 -50 34 -50t34 50v580q0 50 -34 50t-34 -50v-580z" />
    <glyph glyph-name="Odieresis" unicode="&#xd6;" horiz-adv-x="364" 
d="M17 583q0 126 43 190.5t122 64.5q78 0 121.5 -65t43.5 -190v-336q0 -125 -43.5 -190t-121.5 -65q-79 0 -122 64.5t-43 190.5v336zM148 125q0 -50 34 -50t34 50v580q0 50 -34 50t-34 -50v-580z" />
    <glyph glyph-name="Oslash" unicode="&#xd8;" horiz-adv-x="364" 
d="M17 583q0 126 43 190.5t122 64.5q78 0 121.5 -65t43.5 -190v-336q0 -125 -43.5 -190t-121.5 -65q-79 0 -122 64.5t-43 190.5v336zM148 125q0 -50 34 -50t34 50v580q0 50 -34 50t-34 -50v-580z" />
    <glyph glyph-name="Ugrave" unicode="&#xd9;" horiz-adv-x="338" 
d="M140 115q0 -40 31 -40t31 40v715h114v-658q0 -85 -38 -132.5t-109 -47.5q-70 0 -108 47.5t-38 132.5v658h117v-715z" />
    <glyph glyph-name="Uacute" unicode="&#xda;" horiz-adv-x="338" 
d="M140 115q0 -40 31 -40t31 40v715h114v-658q0 -85 -38 -132.5t-109 -47.5q-70 0 -108 47.5t-38 132.5v658h117v-715z" />
    <glyph glyph-name="Ucircumflex" unicode="&#xdb;" horiz-adv-x="338" 
d="M140 115q0 -40 31 -40t31 40v715h114v-658q0 -85 -38 -132.5t-109 -47.5q-70 0 -108 47.5t-38 132.5v658h117v-715z" />
    <glyph glyph-name="Udieresis" unicode="&#xdc;" horiz-adv-x="338" 
d="M140 115q0 -40 31 -40t31 40v715h114v-658q0 -85 -38 -132.5t-109 -47.5q-70 0 -108 47.5t-38 132.5v658h117v-715z" />
    <glyph glyph-name="Yacute" unicode="&#xdd;" horiz-adv-x="325" 
d="M221 830h99v-10l-98 -480v-340h-118v340l-99 480v10h112l46 -299h10z" />
    <glyph glyph-name="Thorn" unicode="&#xde;" 
d="M137 830q83 0 133.5 -57.5t50.5 -178.5v-18q0 -120 -49.5 -178t-131.5 -58v-340h-116v830h113zM140 420h8q54 0 54 101v128q0 101 -54 101h-8v-330z" />
    <glyph glyph-name="germandbls" unicode="&#xdf;" horiz-adv-x="298" 
d="M149 647q63 0 99.5 -37t36.5 -104v-94h-94q-8 32 -8 87v26q0 47 -32 47q-34 0 -34 -51q0 -34 15 -67.5t47 -82.5l15 -21q32 -42 47 -65t31 -64t16 -82q0 -70 -38 -108t-101 -38t-99.5 37.5t-36.5 108.5v96h94q8 -32 8 -91v-27q0 -49 32 -49q34 0 34 55q0 59 -63 153
l-15 21q-30 39 -46 62.5t-31.5 64.5t-15.5 82q0 67 38.5 104t100.5 37z" />
    <glyph glyph-name="agrave" unicode="&#xe0;" horiz-adv-x="310" 
d="M191 0v43h-10q-17 -50 -74 -50q-43 0 -70 31.5t-28 88.5l-1 25q1 113 84 188l49 50q23 24 31.5 45.5t8.5 58.5v49q0 41 -28 41q-30 0 -30 -41v-31q0 -66 -7 -95h-97v100q0 69 37 106.5t102 37.5q64 0 98 -36t34 -103v-508h-99zM118 126q0 -50 32 -50q31 0 31 46v208h-10
q-5 -18 -19 -42l-9 -17q-25 -43 -25 -117v-28z" />
    <glyph glyph-name="aacute" unicode="&#xe1;" horiz-adv-x="310" 
d="M191 0v43h-10q-17 -50 -74 -50q-43 0 -70 31.5t-28 88.5l-1 25q1 113 84 188l49 50q23 24 31.5 45.5t8.5 58.5v49q0 41 -28 41q-30 0 -30 -41v-31q0 -66 -7 -95h-97v100q0 69 37 106.5t102 37.5q64 0 98 -36t34 -103v-508h-99zM118 126q0 -50 32 -50q31 0 31 46v208h-10
q-5 -18 -19 -42l-9 -17q-25 -43 -25 -117v-28z" />
    <glyph glyph-name="acircumflex" unicode="&#xe2;" horiz-adv-x="310" 
d="M191 0v43h-10q-17 -50 -74 -50q-43 0 -70 31.5t-28 88.5l-1 25q1 113 84 188l49 50q23 24 31.5 45.5t8.5 58.5v49q0 41 -28 41q-30 0 -30 -41v-31q0 -66 -7 -95h-97v100q0 69 37 106.5t102 37.5q64 0 98 -36t34 -103v-508h-99zM118 126q0 -50 32 -50q31 0 31 46v208h-10
q-5 -18 -19 -42l-9 -17q-25 -43 -25 -117v-28z" />
    <glyph glyph-name="atilde" unicode="&#xe3;" horiz-adv-x="310" 
d="M191 0v43h-10q-17 -50 -74 -50q-43 0 -70 31.5t-28 88.5l-1 25q1 113 84 188l49 50q23 24 31.5 45.5t8.5 58.5v49q0 41 -28 41q-30 0 -30 -41v-31q0 -66 -7 -95h-97v100q0 69 37 106.5t102 37.5q64 0 98 -36t34 -103v-508h-99zM118 126q0 -50 32 -50q31 0 31 46v208h-10
q-5 -18 -19 -42l-9 -17q-25 -43 -25 -117v-28z" />
    <glyph glyph-name="adieresis" unicode="&#xe4;" horiz-adv-x="310" 
d="M191 0v43h-10q-17 -50 -74 -50q-43 0 -70 31.5t-28 88.5l-1 25q1 113 84 188l49 50q23 24 31.5 45.5t8.5 58.5v49q0 41 -28 41q-30 0 -30 -41v-31q0 -66 -7 -95h-97v100q0 69 37 106.5t102 37.5q64 0 98 -36t34 -103v-508h-99zM118 126q0 -50 32 -50q31 0 31 46v208h-10
q-5 -18 -19 -42l-9 -17q-25 -43 -25 -117v-28z" />
    <glyph glyph-name="aring" unicode="&#xe5;" horiz-adv-x="310" 
d="M191 0v43h-10q-17 -50 -74 -50q-43 0 -70 31.5t-28 88.5l-1 25q1 113 84 188l49 50q23 24 31.5 45.5t8.5 58.5v49q0 41 -28 41q-30 0 -30 -41v-31q0 -66 -7 -95h-97v100q0 69 37 106.5t102 37.5q64 0 98 -36t34 -103v-508h-99zM118 126q0 -50 32 -50q31 0 31 46v208h-10
q-5 -18 -19 -42l-9 -17q-25 -43 -25 -117v-28z" />
    <glyph glyph-name="ae" unicode="&#xe6;" horiz-adv-x="310" 
d="M191 0v43h-10q-17 -50 -74 -50q-43 0 -70 31.5t-28 88.5l-1 25q1 113 84 188l49 50q23 24 31.5 45.5t8.5 58.5v49q0 41 -28 41q-30 0 -30 -41v-31q0 -66 -7 -95h-97v100q0 69 37 106.5t102 37.5q64 0 98 -36t34 -103v-508h-99zM118 126q0 -50 32 -50q31 0 31 46v208h-10
q-5 -18 -19 -42l-9 -17q-25 -43 -25 -117v-28z" />
    <glyph glyph-name="ccedilla" unicode="&#xe7;" horiz-adv-x="310" 
d="M15 435q0 98 37 155t108 57q69 0 103.5 -52t34.5 -134v-63h-99q-8 34 -8 97v35q0 40 -29 40q-28 0 -28 -40v-420q0 -40 28 -40q29 0 29 40v40q0 66 8 100h99v-71q0 -82 -34.5 -134t-103.5 -52q-71 0 -108 57t-37 155v230z" />
    <glyph glyph-name="egrave" unicode="&#xe8;" horiz-adv-x="314" 
d="M15 438q0 96 37 152.5t110 56.5q69 0 103.5 -52t34.5 -132v-153h-168v-196q0 -44 30 -44q31 0 31 44v61q0 66 8 100h99v-98q0 -80 -34.5 -132t-103.5 -52q-73 0 -110 56.5t-37 152.5v236zM132 384h61v142q0 44 -31 44q-30 0 -30 -44v-142z" />
    <glyph glyph-name="eacute" unicode="&#xe9;" horiz-adv-x="314" 
d="M15 438q0 96 37 152.5t110 56.5q69 0 103.5 -52t34.5 -132v-153h-168v-196q0 -44 30 -44q31 0 31 44v61q0 66 8 100h99v-98q0 -80 -34.5 -132t-103.5 -52q-73 0 -110 56.5t-37 152.5v236zM132 384h61v142q0 44 -31 44q-30 0 -30 -44v-142z" />
    <glyph glyph-name="ecircumflex" unicode="&#xea;" horiz-adv-x="314" 
d="M15 438q0 96 37 152.5t110 56.5q69 0 103.5 -52t34.5 -132v-153h-168v-196q0 -44 30 -44q31 0 31 44v61q0 66 8 100h99v-98q0 -80 -34.5 -132t-103.5 -52q-73 0 -110 56.5t-37 152.5v236zM132 384h61v142q0 44 -31 44q-30 0 -30 -44v-142z" />
    <glyph glyph-name="edieresis" unicode="&#xeb;" horiz-adv-x="314" 
d="M15 438q0 96 37 152.5t110 56.5q69 0 103.5 -52t34.5 -132v-153h-168v-196q0 -44 30 -44q31 0 31 44v61q0 66 8 100h99v-98q0 -80 -34.5 -132t-103.5 -52q-73 0 -110 56.5t-37 152.5v236zM132 384h61v142q0 44 -31 44q-30 0 -30 -44v-142z" />
    <glyph glyph-name="igrave" unicode="&#xec;" horiz-adv-x="159" 
d="M23 640h113v-640h-113v640zM19 663v40h122v-40h-122z" />
    <glyph glyph-name="iacute" unicode="&#xed;" horiz-adv-x="159" 
d="M23 640h113v-640h-113v640zM19 663v40h122v-40h-122z" />
    <glyph glyph-name="icircumflex" unicode="&#xee;" horiz-adv-x="159" 
d="M23 640h113v-640h-113v640zM19 663v40h122v-40h-122z" />
    <glyph glyph-name="idieresis" unicode="&#xef;" horiz-adv-x="159" 
d="M23 640h113v-640h-113v640zM19 663v40h122v-40h-122z" />
    <glyph glyph-name="eth" unicode="&#xf0;" 
d="M306 0h-103v44h-10q-17 -49 -72 -49q-49 0 -77.5 44t-28.5 127v308q0 83 28.5 127t77.5 44q45 0 61 -33h10v218h114v-830zM130 121q0 -44 31 -44t31 44v405q0 44 -31 44t-31 -44v-405z" />
    <glyph glyph-name="ntilde" unicode="&#xf1;" horiz-adv-x="331" 
d="M23 640h102v-44h10q19 49 78 49q47 0 73 -37t26 -105v-503h-114v519q0 44 -30 44q-32 0 -32 -44v-519h-113v640z" />
    <glyph glyph-name="ograve" unicode="&#xf2;" horiz-adv-x="332" 
d="M15 435q0 98 39 155t112 57t111.5 -57t38.5 -155v-230q0 -98 -38.5 -155t-111.5 -57t-112 57t-39 155v230zM135 114q0 -44 31 -44t31 44v412q0 44 -31 44t-31 -44v-412z" />
    <glyph glyph-name="oacute" unicode="&#xf3;" horiz-adv-x="332" 
d="M15 435q0 98 39 155t112 57t111.5 -57t38.5 -155v-230q0 -98 -38.5 -155t-111.5 -57t-112 57t-39 155v230zM135 114q0 -44 31 -44t31 44v412q0 44 -31 44t-31 -44v-412z" />
    <glyph glyph-name="ocircumflex" unicode="&#xf4;" horiz-adv-x="332" 
d="M15 435q0 98 39 155t112 57t111.5 -57t38.5 -155v-230q0 -98 -38.5 -155t-111.5 -57t-112 57t-39 155v230zM135 114q0 -44 31 -44t31 44v412q0 44 -31 44t-31 -44v-412z" />
    <glyph glyph-name="otilde" unicode="&#xf5;" horiz-adv-x="332" 
d="M15 435q0 98 39 155t112 57t111.5 -57t38.5 -155v-230q0 -98 -38.5 -155t-111.5 -57t-112 57t-39 155v230zM135 114q0 -44 31 -44t31 44v412q0 44 -31 44t-31 -44v-412z" />
    <glyph glyph-name="odieresis" unicode="&#xf6;" horiz-adv-x="332" 
d="M15 435q0 98 39 155t112 57t111.5 -57t38.5 -155v-230q0 -98 -38.5 -155t-111.5 -57t-112 57t-39 155v230zM135 114q0 -44 31 -44t31 44v412q0 44 -31 44t-31 -44v-412z" />
    <glyph glyph-name="oslash" unicode="&#xf8;" horiz-adv-x="332" 
d="M15 435q0 98 39 155t112 57t111.5 -57t38.5 -155v-230q0 -98 -38.5 -155t-111.5 -57t-112 57t-39 155v230zM135 114q0 -44 31 -44t31 44v412q0 44 -31 44t-31 -44v-412z" />
    <glyph glyph-name="ugrave" unicode="&#xf9;" horiz-adv-x="331" 
d="M308 0h-102v48h-10q-19 -53 -78 -53q-47 0 -73 37t-26 105v503h114v-516q0 -44 30 -44q32 0 32 44v516h113v-640z" />
    <glyph glyph-name="uacute" unicode="&#xfa;" horiz-adv-x="331" 
d="M308 0h-102v48h-10q-19 -53 -78 -53q-47 0 -73 37t-26 105v503h114v-516q0 -44 30 -44q32 0 32 44v516h113v-640z" />
    <glyph glyph-name="ucircumflex" unicode="&#xfb;" horiz-adv-x="331" 
d="M308 0h-102v48h-10q-19 -53 -78 -53q-47 0 -73 37t-26 105v503h114v-516q0 -44 30 -44q32 0 32 44v516h113v-640z" />
    <glyph glyph-name="udieresis" unicode="&#xfc;" horiz-adv-x="331" 
d="M308 0h-102v48h-10q-19 -53 -78 -53q-47 0 -73 37t-26 105v503h114v-516q0 -44 30 -44q32 0 32 44v516h113v-640z" />
    <glyph glyph-name="yacute" unicode="&#xfd;" horiz-adv-x="294" 
d="M187 640h98v-10l-87 -800h-90v10l21 160h-51l-69 630v10h110l29 -429h10z" />
    <glyph glyph-name="thorn" unicode="&#xfe;" 
d="M23 640h102v-44h10q17 49 73 49q48 0 76.5 -44t28.5 -127v-308q0 -83 -28.5 -127t-76.5 -44q-44 0 -62 33h-10v-198h-113v810zM136 114q0 -44 31 -44t31 44v405q0 44 -31 44t-31 -44v-405z" />
    <glyph glyph-name="ydieresis" unicode="&#xff;" horiz-adv-x="294" 
d="M187 640h98v-10l-87 -800h-90v10l21 160h-51l-69 630v10h110l29 -429h10z" />
    <glyph glyph-name="Amacron" unicode="&#x100;" horiz-adv-x="326" 
d="M83 830h160l75 -820v-10h-115l-13 212h-65l-13 -212h-103v10zM131 306h53l-21 319h-10z" />
    <glyph glyph-name="amacron" unicode="&#x101;" horiz-adv-x="310" 
d="M191 0v43h-10q-17 -50 -74 -50q-43 0 -70 31.5t-28 88.5l-1 25q1 113 84 188l49 50q23 24 31.5 45.5t8.5 58.5v49q0 41 -28 41q-30 0 -30 -41v-31q0 -66 -7 -95h-97v100q0 69 37 106.5t102 37.5q64 0 98 -36t34 -103v-508h-99zM118 126q0 -50 32 -50q31 0 31 46v208h-10
q-5 -18 -19 -42l-9 -17q-25 -43 -25 -117v-28z" />
    <glyph glyph-name="Abreve" unicode="&#x102;" horiz-adv-x="326" 
d="M83 830h160l75 -820v-10h-115l-13 212h-65l-13 -212h-103v10zM131 306h53l-21 319h-10z" />
    <glyph glyph-name="abreve" unicode="&#x103;" horiz-adv-x="310" 
d="M191 0v43h-10q-17 -50 -74 -50q-43 0 -70 31.5t-28 88.5l-1 25q1 113 84 188l49 50q23 24 31.5 45.5t8.5 58.5v49q0 41 -28 41q-30 0 -30 -41v-31q0 -66 -7 -95h-97v100q0 69 37 106.5t102 37.5q64 0 98 -36t34 -103v-508h-99zM118 126q0 -50 32 -50q31 0 31 46v208h-10
q-5 -18 -19 -42l-9 -17q-25 -43 -25 -117v-28z" />
    <glyph glyph-name="Aogonek" unicode="&#x104;" horiz-adv-x="326" 
d="M83 830h160l75 -820v-10h-115l-13 212h-65l-13 -212h-103v10zM131 306h53l-21 319h-10z" />
    <glyph glyph-name="aogonek" unicode="&#x105;" horiz-adv-x="310" 
d="M191 0v43h-10q-17 -50 -74 -50q-43 0 -70 31.5t-28 88.5l-1 25q1 113 84 188l49 50q23 24 31.5 45.5t8.5 58.5v49q0 41 -28 41q-30 0 -30 -41v-31q0 -66 -7 -95h-97v100q0 69 37 106.5t102 37.5q64 0 98 -36t34 -103v-508h-99zM118 126q0 -50 32 -50q31 0 31 46v208h-10
q-5 -18 -19 -42l-9 -17q-25 -43 -25 -117v-28z" />
    <glyph glyph-name="Cacute" unicode="&#x106;" horiz-adv-x="343" 
d="M17 583q0 127 42.5 191t121.5 64q72 0 109.5 -54.5t37.5 -149.5v-104h-108q-8 34 -8 100v78q0 47 -31 47q-33 0 -33 -49v-582q0 -49 33 -49q31 0 31 47v83q0 66 8 100h108v-109q0 -95 -37.5 -149.5t-109.5 -54.5q-79 0 -121.5 64t-42.5 191v336z" />
    <glyph glyph-name="cacute" unicode="&#x107;" horiz-adv-x="310" 
d="M15 435q0 98 37 155t108 57q69 0 103.5 -52t34.5 -134v-63h-99q-8 34 -8 97v35q0 40 -29 40q-28 0 -28 -40v-420q0 -40 28 -40q29 0 29 40v40q0 66 8 100h99v-71q0 -82 -34.5 -134t-103.5 -52q-71 0 -108 57t-37 155v230z" />
    <glyph glyph-name="Cdotaccent" unicode="&#x10a;" horiz-adv-x="343" 
d="M17 583q0 127 42.5 191t121.5 64q72 0 109.5 -54.5t37.5 -149.5v-104h-108q-8 34 -8 100v78q0 47 -31 47q-33 0 -33 -49v-582q0 -49 33 -49q31 0 31 47v83q0 66 8 100h108v-109q0 -95 -37.5 -149.5t-109.5 -54.5q-79 0 -121.5 64t-42.5 191v336z" />
    <glyph glyph-name="cdotaccent" unicode="&#x10b;" horiz-adv-x="310" 
d="M15 435q0 98 37 155t108 57q69 0 103.5 -52t34.5 -134v-63h-99q-8 34 -8 97v35q0 40 -29 40q-28 0 -28 -40v-420q0 -40 28 -40q29 0 29 40v40q0 66 8 100h99v-71q0 -82 -34.5 -134t-103.5 -52q-71 0 -108 57t-37 155v230z" />
    <glyph glyph-name="Ccaron" unicode="&#x10c;" horiz-adv-x="343" 
d="M17 583q0 127 42.5 191t121.5 64q72 0 109.5 -54.5t37.5 -149.5v-104h-108q-8 34 -8 100v78q0 47 -31 47q-33 0 -33 -49v-582q0 -49 33 -49q31 0 31 47v83q0 66 8 100h108v-109q0 -95 -37.5 -149.5t-109.5 -54.5q-79 0 -121.5 64t-42.5 191v336z" />
    <glyph glyph-name="ccaron" unicode="&#x10d;" horiz-adv-x="310" 
d="M15 435q0 98 37 155t108 57q69 0 103.5 -52t34.5 -134v-63h-99q-8 34 -8 97v35q0 40 -29 40q-28 0 -28 -40v-420q0 -40 28 -40q29 0 29 40v40q0 66 8 100h99v-71q0 -82 -34.5 -134t-103.5 -52q-71 0 -108 57t-37 155v230z" />
    <glyph glyph-name="Dcaron" unicode="&#x10e;" horiz-adv-x="339" 
d="M136 830q93 0 139.5 -62.5t46.5 -197.5v-310q0 -260 -186 -260h-112v830h112zM139 84h12q54 0 54 70v525q0 71 -54 71h-12v-666z" />
    <glyph glyph-name="dcaron" unicode="&#x10f;" 
d="M306 0h-103v44h-10q-17 -49 -72 -49q-49 0 -77.5 44t-28.5 127v308q0 83 28.5 127t77.5 44q45 0 61 -33h10v218h114v-830zM130 121q0 -44 31 -44t31 44v405q0 44 -31 44t-31 -44v-405z" />
    <glyph glyph-name="Dcroat" unicode="&#x110;" horiz-adv-x="339" 
d="M136 830q93 0 139.5 -62.5t46.5 -197.5v-310q0 -260 -186 -260h-112v830h112zM139 84h12q54 0 54 70v525q0 71 -54 71h-12v-666z" />
    <glyph glyph-name="dcroat" unicode="&#x111;" 
d="M306 0h-103v44h-10q-17 -49 -72 -49q-49 0 -77.5 44t-28.5 127v308q0 83 28.5 127t77.5 44q45 0 61 -33h10v218h114v-830zM130 121q0 -44 31 -44t31 44v405q0 44 -31 44t-31 -44v-405z" />
    <glyph glyph-name="Emacron" unicode="&#x112;" horiz-adv-x="275" 
d="M24 830h238v-93h-120v-269h105v-93h-105v-282h120v-93h-238v830z" />
    <glyph glyph-name="emacron" unicode="&#x113;" horiz-adv-x="314" 
d="M15 438q0 96 37 152.5t110 56.5q69 0 103.5 -52t34.5 -132v-153h-168v-196q0 -44 30 -44q31 0 31 44v61q0 66 8 100h99v-98q0 -80 -34.5 -132t-103.5 -52q-73 0 -110 56.5t-37 152.5v236zM132 384h61v142q0 44 -31 44q-30 0 -30 -44v-142z" />
    <glyph glyph-name="Edotaccent" unicode="&#x116;" horiz-adv-x="275" 
d="M24 830h238v-93h-120v-269h105v-93h-105v-282h120v-93h-238v830z" />
    <glyph glyph-name="edotaccent" unicode="&#x117;" horiz-adv-x="314" 
d="M15 438q0 96 37 152.5t110 56.5q69 0 103.5 -52t34.5 -132v-153h-168v-196q0 -44 30 -44q31 0 31 44v61q0 66 8 100h99v-98q0 -80 -34.5 -132t-103.5 -52q-73 0 -110 56.5t-37 152.5v236zM132 384h61v142q0 44 -31 44q-30 0 -30 -44v-142z" />
    <glyph glyph-name="Eogonek" unicode="&#x118;" horiz-adv-x="275" 
d="M24 830h238v-93h-120v-269h105v-93h-105v-282h120v-93h-238v830z" />
    <glyph glyph-name="eogonek" unicode="&#x119;" horiz-adv-x="314" 
d="M15 438q0 96 37 152.5t110 56.5q69 0 103.5 -52t34.5 -132v-153h-168v-196q0 -44 30 -44q31 0 31 44v61q0 66 8 100h99v-98q0 -80 -34.5 -132t-103.5 -52q-73 0 -110 56.5t-37 152.5v236zM132 384h61v142q0 44 -31 44q-30 0 -30 -44v-142z" />
    <glyph glyph-name="Ecaron" unicode="&#x11a;" horiz-adv-x="275" 
d="M24 830h238v-93h-120v-269h105v-93h-105v-282h120v-93h-238v830z" />
    <glyph glyph-name="ecaron" unicode="&#x11b;" horiz-adv-x="314" 
d="M15 438q0 96 37 152.5t110 56.5q69 0 103.5 -52t34.5 -132v-153h-168v-196q0 -44 30 -44q31 0 31 44v61q0 66 8 100h99v-98q0 -80 -34.5 -132t-103.5 -52q-73 0 -110 56.5t-37 152.5v236zM132 384h61v142q0 44 -31 44q-30 0 -30 -44v-142z" />
    <glyph glyph-name="Gbreve" unicode="&#x11e;" horiz-adv-x="349" 
d="M17 589q0 123 42 186t120 63q73 0 111 -54t38 -147v-107h-109q-8 34 -8 100v78q0 47 -31 47q-33 0 -33 -49v-577q0 -49 33 -49q31 0 31 47v261h117v-388h-64l-15 62h-10q-15 -69 -85 -69q-62 0 -99.5 58t-37.5 165v373z" />
    <glyph glyph-name="gbreve" unicode="&#x11f;" 
d="M306 -6q0 -80 -35 -125.5t-105 -45.5t-105.5 44.5t-35.5 121.5v62h100q7 -28 7 -91v-19q0 -42 30 -42t30 43v177h-10q-17 -32 -61 -32q-49 0 -77.5 43.5t-28.5 125.5v220q0 82 28.5 125.5t77.5 43.5q55 0 72 -49h10l11 44h92v-646zM130 206q0 -44 31 -44t31 44v313
q0 44 -31 44t-31 -44v-313z" />
    <glyph glyph-name="Gdotaccent" unicode="&#x120;" horiz-adv-x="349" 
d="M17 589q0 123 42 186t120 63q73 0 111 -54t38 -147v-107h-109q-8 34 -8 100v78q0 47 -31 47q-33 0 -33 -49v-577q0 -49 33 -49q31 0 31 47v261h117v-388h-64l-15 62h-10q-15 -69 -85 -69q-62 0 -99.5 58t-37.5 165v373z" />
    <glyph glyph-name="gdotaccent" unicode="&#x121;" 
d="M306 -6q0 -80 -35 -125.5t-105 -45.5t-105.5 44.5t-35.5 121.5v62h100q7 -28 7 -91v-19q0 -42 30 -42t30 43v177h-10q-17 -32 -61 -32q-49 0 -77.5 43.5t-28.5 125.5v220q0 82 28.5 125.5t77.5 43.5q55 0 72 -49h10l11 44h92v-646zM130 206q0 -44 31 -44t31 44v313
q0 44 -31 44t-31 -44v-313z" />
    <glyph glyph-name="uni0122" unicode="&#x122;" horiz-adv-x="349" 
d="M17 589q0 123 42 186t120 63q73 0 111 -54t38 -147v-107h-109q-8 34 -8 100v78q0 47 -31 47q-33 0 -33 -49v-577q0 -49 33 -49q31 0 31 47v261h117v-388h-64l-15 62h-10q-15 -69 -85 -69q-62 0 -99.5 58t-37.5 165v373z" />
    <glyph glyph-name="uni0123" unicode="&#x123;" 
d="M306 -6q0 -80 -35 -125.5t-105 -45.5t-105.5 44.5t-35.5 121.5v62h100q7 -28 7 -91v-19q0 -42 30 -42t30 43v177h-10q-17 -32 -61 -32q-49 0 -77.5 43.5t-28.5 125.5v220q0 82 28.5 125.5t77.5 43.5q55 0 72 -49h10l11 44h92v-646zM130 206q0 -44 31 -44t31 44v313
q0 44 -31 44t-31 -44v-313z" />
    <glyph glyph-name="Hbar" unicode="&#x126;" horiz-adv-x="342" 
d="M24 830h116v-364h62v364h116v-830h-116v373h-62v-373h-116v830z" />
    <glyph glyph-name="hbar" unicode="&#x127;" horiz-adv-x="331" 
d="M23 830h113v-224h10q20 39 69 39q43 0 70 -35.5t27 -106.5v-503h-114v519q0 44 -30 44q-32 0 -32 -44v-519h-113v830z" />
    <glyph glyph-name="Itilde" unicode="&#x128;" horiz-adv-x="165" 
d="M24 830h118v-830h-118v830z" />
    <glyph glyph-name="itilde" unicode="&#x129;" horiz-adv-x="159" 
d="M23 640h113v-640h-113v640zM19 663v40h122v-40h-122z" />
    <glyph glyph-name="Imacron" unicode="&#x12a;" horiz-adv-x="165" 
d="M24 830h118v-830h-118v830z" />
    <glyph glyph-name="imacron" unicode="&#x12b;" horiz-adv-x="159" 
d="M23 640h113v-640h-113v640zM19 663v40h122v-40h-122z" />
    <glyph glyph-name="Iogonek" unicode="&#x12e;" horiz-adv-x="165" 
d="M24 830h118v-830h-118v830z" />
    <glyph glyph-name="iogonek" unicode="&#x12f;" horiz-adv-x="159" 
d="M23 640h113v-640h-113v640zM19 663v40h122v-40h-122z" />
    <glyph glyph-name="Idotaccent" unicode="&#x130;" horiz-adv-x="165" 
d="M24 830h118v-830h-118v830z" />
    <glyph glyph-name="dotlessi" unicode="&#x131;" horiz-adv-x="159" 
d="M23 640h113v-640h-113v640zM19 663v40h122v-40h-122z" />
    <glyph glyph-name="uni0136" unicode="&#x136;" horiz-adv-x="335" 
d="M24 0v830h115l-3 -332h10l76 332h107v-10l-94 -400v-10l94 -400v-10h-110l-73 318h-10l3 -318h-115z" />
    <glyph glyph-name="uni0137" unicode="&#x137;" horiz-adv-x="329" 
d="M23 830h113v-449h10l79 259h99v-10l-93 -304v-10l93 -306v-10h-104l-74 243h-10v-243h-113v830z" />
    <glyph glyph-name="Lacute" unicode="&#x139;" horiz-adv-x="265" 
d="M24 830h118v-737h113v-93h-231v830z" />
    <glyph glyph-name="lacute" unicode="&#x13a;" horiz-adv-x="159" 
d="M23 830h113v-830h-113v830z" />
    <glyph glyph-name="uni013B" unicode="&#x13b;" horiz-adv-x="265" 
d="M24 830h118v-737h113v-93h-231v830z" />
    <glyph glyph-name="uni013C" unicode="&#x13c;" horiz-adv-x="159" 
d="M23 830h113v-830h-113v830z" />
    <glyph glyph-name="Lcaron" unicode="&#x13d;" horiz-adv-x="265" 
d="M24 830h118v-737h113v-93h-231v830z" />
    <glyph glyph-name="lcaron" unicode="&#x13e;" horiz-adv-x="159" 
d="M23 830h113v-830h-113v830z" />
    <glyph glyph-name="Lslash" unicode="&#x141;" horiz-adv-x="265" 
d="M24 830h118v-737h113v-93h-231v830z" />
    <glyph glyph-name="lslash" unicode="&#x142;" horiz-adv-x="159" 
d="M23 830h113v-830h-113v830z" />
    <glyph glyph-name="Nacute" unicode="&#x143;" horiz-adv-x="341" 
d="M24 830h110l77 -488h10l-13 488h109v-830h-110l-77 488h-10l13 -488h-109v830z" />
    <glyph glyph-name="nacute" unicode="&#x144;" horiz-adv-x="331" 
d="M23 640h102v-44h10q19 49 78 49q47 0 73 -37t26 -105v-503h-114v519q0 44 -30 44q-32 0 -32 -44v-519h-113v640z" />
    <glyph glyph-name="uni0145" unicode="&#x145;" horiz-adv-x="341" 
d="M24 830h110l77 -488h10l-13 488h109v-830h-110l-77 488h-10l13 -488h-109v830z" />
    <glyph glyph-name="uni0146" unicode="&#x146;" horiz-adv-x="331" 
d="M23 640h102v-44h10q19 49 78 49q47 0 73 -37t26 -105v-503h-114v519q0 44 -30 44q-32 0 -32 -44v-519h-113v640z" />
    <glyph glyph-name="Ncaron" unicode="&#x147;" horiz-adv-x="341" 
d="M24 830h110l77 -488h10l-13 488h109v-830h-110l-77 488h-10l13 -488h-109v830z" />
    <glyph glyph-name="ncaron" unicode="&#x148;" horiz-adv-x="331" 
d="M23 640h102v-44h10q19 49 78 49q47 0 73 -37t26 -105v-503h-114v519q0 44 -30 44q-32 0 -32 -44v-519h-113v640z" />
    <glyph glyph-name="Eng" unicode="&#x14a;" horiz-adv-x="341" 
d="M24 830h110l77 -488h10l-13 488h109v-830h-110l-77 488h-10l13 -488h-109v830z" />
    <glyph glyph-name="eng" unicode="&#x14b;" horiz-adv-x="331" 
d="M23 640h102v-44h10q19 49 78 49q47 0 73 -37t26 -105v-503h-114v519q0 44 -30 44q-32 0 -32 -44v-519h-113v640z" />
    <glyph glyph-name="Omacron" unicode="&#x14c;" horiz-adv-x="364" 
d="M17 583q0 126 43 190.5t122 64.5q78 0 121.5 -65t43.5 -190v-336q0 -125 -43.5 -190t-121.5 -65q-79 0 -122 64.5t-43 190.5v336zM148 125q0 -50 34 -50t34 50v580q0 50 -34 50t-34 -50v-580z" />
    <glyph glyph-name="omacron" unicode="&#x14d;" horiz-adv-x="332" 
d="M15 435q0 98 39 155t112 57t111.5 -57t38.5 -155v-230q0 -98 -38.5 -155t-111.5 -57t-112 57t-39 155v230zM135 114q0 -44 31 -44t31 44v412q0 44 -31 44t-31 -44v-412z" />
    <glyph glyph-name="Ohungarumlaut" unicode="&#x150;" horiz-adv-x="364" 
d="M17 583q0 126 43 190.5t122 64.5q78 0 121.5 -65t43.5 -190v-336q0 -125 -43.5 -190t-121.5 -65q-79 0 -122 64.5t-43 190.5v336zM148 125q0 -50 34 -50t34 50v580q0 50 -34 50t-34 -50v-580z" />
    <glyph glyph-name="ohungarumlaut" unicode="&#x151;" horiz-adv-x="332" 
d="M15 435q0 98 39 155t112 57t111.5 -57t38.5 -155v-230q0 -98 -38.5 -155t-111.5 -57t-112 57t-39 155v230zM135 114q0 -44 31 -44t31 44v412q0 44 -31 44t-31 -44v-412z" />
    <glyph glyph-name="OE" unicode="&#x152;" horiz-adv-x="364" 
d="M17 583q0 126 43 190.5t122 64.5q78 0 121.5 -65t43.5 -190v-336q0 -125 -43.5 -190t-121.5 -65q-79 0 -122 64.5t-43 190.5v336zM148 125q0 -50 34 -50t34 50v580q0 50 -34 50t-34 -50v-580z" />
    <glyph glyph-name="oe" unicode="&#x153;" horiz-adv-x="332" 
d="M15 435q0 98 39 155t112 57t111.5 -57t38.5 -155v-230q0 -98 -38.5 -155t-111.5 -57t-112 57t-39 155v230zM135 114q0 -44 31 -44t31 44v412q0 44 -31 44t-31 -44v-412z" />
    <glyph glyph-name="Racute" unicode="&#x154;" horiz-adv-x="330" 
d="M139 830q82 0 132 -55t50 -160v-18q0 -144 -89 -199v-10q37 -21 50.5 -53.5t15.5 -97.5l3 -112q3 -85 19 -115v-10h-113q-13 36 -15 108l-5 172q-3 67 -48 67v-347h-115v830h115zM139 428h8q55 0 55 107v107q0 108 -55 108h-8v-322z" />
    <glyph glyph-name="racute" unicode="&#x155;" horiz-adv-x="298" 
d="M23 640h102v-43h10q18 48 70 48q41 0 62.5 -32.5t21.5 -90.5v-132h-99v136q0 37 -26 37q-28 0 -28 -37v-526h-113v640z" />
    <glyph glyph-name="uni0156" unicode="&#x156;" horiz-adv-x="330" 
d="M139 830q82 0 132 -55t50 -160v-18q0 -144 -89 -199v-10q37 -21 50.5 -53.5t15.5 -97.5l3 -112q3 -85 19 -115v-10h-113q-13 36 -15 108l-5 172q-3 67 -48 67v-347h-115v830h115zM139 428h8q55 0 55 107v107q0 108 -55 108h-8v-322z" />
    <glyph glyph-name="uni0157" unicode="&#x157;" horiz-adv-x="298" 
d="M23 640h102v-43h10q18 48 70 48q41 0 62.5 -32.5t21.5 -90.5v-132h-99v136q0 37 -26 37q-28 0 -28 -37v-526h-113v640z" />
    <glyph glyph-name="Rcaron" unicode="&#x158;" horiz-adv-x="330" 
d="M139 830q82 0 132 -55t50 -160v-18q0 -144 -89 -199v-10q37 -21 50.5 -53.5t15.5 -97.5l3 -112q3 -85 19 -115v-10h-113q-13 36 -15 108l-5 172q-3 67 -48 67v-347h-115v830h115zM139 428h8q55 0 55 107v107q0 108 -55 108h-8v-322z" />
    <glyph glyph-name="rcaron" unicode="&#x159;" horiz-adv-x="298" 
d="M23 640h102v-43h10q18 48 70 48q41 0 62.5 -32.5t21.5 -90.5v-132h-99v136q0 37 -26 37q-28 0 -28 -37v-526h-113v640z" />
    <glyph glyph-name="Sacute" unicode="&#x15a;" horiz-adv-x="311" 
d="M114 270q8 -34 8 -97v-58q0 -41 31 -41q35 0 35 57q0 91 -71 245l-24 46q-3 6 -13.5 28t-13.5 29t-12 26.5t-12.5 28.5t-10 26.5t-9 29.5t-6 28t-4.5 31t-1 31q0 73 38.5 115.5t106.5 42.5q67 0 103.5 -41.5t36.5 -113.5v-113h-98q-8 34 -8 97v48q0 41 -31 41
q-35 0 -35 -57q0 -79 64 -207l23 -47q90 -184 90 -292q0 -75 -38.5 -118t-106.5 -43t-104 41.5t-36 117.5v119h98z" />
    <glyph glyph-name="sacute" unicode="&#x15b;" horiz-adv-x="298" 
d="M149 647q63 0 99.5 -37t36.5 -104v-94h-94q-8 32 -8 87v26q0 47 -32 47q-34 0 -34 -51q0 -34 15 -67.5t47 -82.5l15 -21q32 -42 47 -65t31 -64t16 -82q0 -70 -38 -108t-101 -38t-99.5 37.5t-36.5 108.5v96h94q8 -32 8 -91v-27q0 -49 32 -49q34 0 34 55q0 59 -63 153
l-15 21q-30 39 -46 62.5t-31.5 64.5t-15.5 82q0 67 38.5 104t100.5 37z" />
    <glyph glyph-name="Scedilla" unicode="&#x15e;" horiz-adv-x="311" 
d="M114 270q8 -34 8 -97v-58q0 -41 31 -41q35 0 35 57q0 91 -71 245l-24 46q-3 6 -13.5 28t-13.5 29t-12 26.5t-12.5 28.5t-10 26.5t-9 29.5t-6 28t-4.5 31t-1 31q0 73 38.5 115.5t106.5 42.5q67 0 103.5 -41.5t36.5 -113.5v-113h-98q-8 34 -8 97v48q0 41 -31 41
q-35 0 -35 -57q0 -79 64 -207l23 -47q90 -184 90 -292q0 -75 -38.5 -118t-106.5 -43t-104 41.5t-36 117.5v119h98z" />
    <glyph glyph-name="scedilla" unicode="&#x15f;" horiz-adv-x="298" 
d="M149 647q63 0 99.5 -37t36.5 -104v-94h-94q-8 32 -8 87v26q0 47 -32 47q-34 0 -34 -51q0 -34 15 -67.5t47 -82.5l15 -21q32 -42 47 -65t31 -64t16 -82q0 -70 -38 -108t-101 -38t-99.5 37.5t-36.5 108.5v96h94q8 -32 8 -91v-27q0 -49 32 -49q34 0 34 55q0 59 -63 153
l-15 21q-30 39 -46 62.5t-31.5 64.5t-15.5 82q0 67 38.5 104t100.5 37z" />
    <glyph glyph-name="Scaron" unicode="&#x160;" horiz-adv-x="311" 
d="M114 270q8 -34 8 -97v-58q0 -41 31 -41q35 0 35 57q0 91 -71 245l-24 46q-3 6 -13.5 28t-13.5 29t-12 26.5t-12.5 28.5t-10 26.5t-9 29.5t-6 28t-4.5 31t-1 31q0 73 38.5 115.5t106.5 42.5q67 0 103.5 -41.5t36.5 -113.5v-113h-98q-8 34 -8 97v48q0 41 -31 41
q-35 0 -35 -57q0 -79 64 -207l23 -47q90 -184 90 -292q0 -75 -38.5 -118t-106.5 -43t-104 41.5t-36 117.5v119h98z" />
    <glyph glyph-name="scaron" unicode="&#x161;" horiz-adv-x="298" 
d="M149 647q63 0 99.5 -37t36.5 -104v-94h-94q-8 32 -8 87v26q0 47 -32 47q-34 0 -34 -51q0 -34 15 -67.5t47 -82.5l15 -21q32 -42 47 -65t31 -64t16 -82q0 -70 -38 -108t-101 -38t-99.5 37.5t-36.5 108.5v96h94q8 -32 8 -91v-27q0 -49 32 -49q34 0 34 55q0 59 -63 153
l-15 21q-30 39 -46 62.5t-31.5 64.5t-15.5 82q0 67 38.5 104t100.5 37z" />
    <glyph glyph-name="uni0162" unicode="&#x162;" horiz-adv-x="307" 
d="M10 830h288v-93h-85v-737h-118v737h-85v93z" />
    <glyph glyph-name="uni0163" unicode="&#x163;" horiz-adv-x="225" 
d="M8 635q45 4 63 36t22 99h75v-130h51v-74h-51v-566h-114v566h-46v69z" />
    <glyph glyph-name="Tcaron" unicode="&#x164;" horiz-adv-x="307" 
d="M10 830h288v-93h-85v-737h-118v737h-85v93z" />
    <glyph glyph-name="tcaron" unicode="&#x165;" horiz-adv-x="225" 
d="M8 635q45 4 63 36t22 99h75v-130h51v-74h-51v-566h-114v566h-46v69z" />
    <glyph glyph-name="Tbar" unicode="&#x166;" horiz-adv-x="307" 
d="M10 830h288v-93h-85v-737h-118v737h-85v93z" />
    <glyph glyph-name="tbar" unicode="&#x167;" horiz-adv-x="225" 
d="M8 635q45 4 63 36t22 99h75v-130h51v-74h-51v-566h-114v566h-46v69z" />
    <glyph glyph-name="Utilde" unicode="&#x168;" horiz-adv-x="338" 
d="M140 115q0 -40 31 -40t31 40v715h114v-658q0 -85 -38 -132.5t-109 -47.5q-70 0 -108 47.5t-38 132.5v658h117v-715z" />
    <glyph glyph-name="utilde" unicode="&#x169;" horiz-adv-x="331" 
d="M308 0h-102v48h-10q-19 -53 -78 -53q-47 0 -73 37t-26 105v503h114v-516q0 -44 30 -44q32 0 32 44v516h113v-640z" />
    <glyph glyph-name="Umacron" unicode="&#x16a;" horiz-adv-x="338" 
d="M140 115q0 -40 31 -40t31 40v715h114v-658q0 -85 -38 -132.5t-109 -47.5q-70 0 -108 47.5t-38 132.5v658h117v-715z" />
    <glyph glyph-name="umacron" unicode="&#x16b;" horiz-adv-x="331" 
d="M308 0h-102v48h-10q-19 -53 -78 -53q-47 0 -73 37t-26 105v503h114v-516q0 -44 30 -44q32 0 32 44v516h113v-640z" />
    <glyph glyph-name="Uring" unicode="&#x16e;" horiz-adv-x="338" 
d="M140 115q0 -40 31 -40t31 40v715h114v-658q0 -85 -38 -132.5t-109 -47.5q-70 0 -108 47.5t-38 132.5v658h117v-715z" />
    <glyph glyph-name="uring" unicode="&#x16f;" horiz-adv-x="331" 
d="M308 0h-102v48h-10q-19 -53 -78 -53q-47 0 -73 37t-26 105v503h114v-516q0 -44 30 -44q32 0 32 44v516h113v-640z" />
    <glyph glyph-name="Uhungarumlaut" unicode="&#x170;" horiz-adv-x="338" 
d="M140 115q0 -40 31 -40t31 40v715h114v-658q0 -85 -38 -132.5t-109 -47.5q-70 0 -108 47.5t-38 132.5v658h117v-715z" />
    <glyph glyph-name="uhungarumlaut" unicode="&#x171;" horiz-adv-x="331" 
d="M308 0h-102v48h-10q-19 -53 -78 -53q-47 0 -73 37t-26 105v503h114v-516q0 -44 30 -44q32 0 32 44v516h113v-640z" />
    <glyph glyph-name="Uogonek" unicode="&#x172;" horiz-adv-x="338" 
d="M140 115q0 -40 31 -40t31 40v715h114v-658q0 -85 -38 -132.5t-109 -47.5q-70 0 -108 47.5t-38 132.5v658h117v-715z" />
    <glyph glyph-name="uogonek" unicode="&#x173;" horiz-adv-x="331" 
d="M308 0h-102v48h-10q-19 -53 -78 -53q-47 0 -73 37t-26 105v503h114v-516q0 -44 30 -44q32 0 32 44v516h113v-640z" />
    <glyph glyph-name="Wcircumflex" unicode="&#x174;" horiz-adv-x="462" 
d="M199 830h78l41 -542h10l29 542h97v-10l-60 -820h-117l-34 452h-10l-34 -452h-130l-60 820v10h109l30 -542h10z" />
    <glyph glyph-name="wcircumflex" unicode="&#x175;" horiz-adv-x="434" 
d="M335 640h91v-10l-66 -630h-97l-35 382h-10l-34 -382h-110l-66 630v10h103l28 -397h10l36 397h76l37 -397h10z" />
    <glyph glyph-name="Ycircumflex" unicode="&#x176;" horiz-adv-x="325" 
d="M221 830h99v-10l-98 -480v-340h-118v340l-99 480v10h112l46 -299h10z" />
    <glyph glyph-name="ycircumflex" unicode="&#x177;" horiz-adv-x="294" 
d="M187 640h98v-10l-87 -800h-90v10l21 160h-51l-69 630v10h110l29 -429h10z" />
    <glyph glyph-name="Ydieresis" unicode="&#x178;" horiz-adv-x="325" 
d="M221 830h99v-10l-98 -480v-340h-118v340l-99 480v10h112l46 -299h10z" />
    <glyph glyph-name="Zacute" unicode="&#x179;" horiz-adv-x="287" 
d="M12 0v76l140 661h-137v93h260v-76l-141 -661h138v-93h-260z" />
    <glyph glyph-name="zacute" unicode="&#x17a;" horiz-adv-x="272" 
d="M9 0v57l137 509h-135v74h252v-57l-137 -509h135v-74h-252z" />
    <glyph glyph-name="Zdotaccent" unicode="&#x17b;" horiz-adv-x="287" 
d="M12 0v76l140 661h-137v93h260v-76l-141 -661h138v-93h-260z" />
    <glyph glyph-name="zdotaccent" unicode="&#x17c;" horiz-adv-x="272" 
d="M9 0v57l137 509h-135v74h252v-57l-137 -509h135v-74h-252z" />
    <glyph glyph-name="Zcaron" unicode="&#x17d;" horiz-adv-x="287" 
d="M12 0v76l140 661h-137v93h260v-76l-141 -661h138v-93h-260z" />
    <glyph glyph-name="zcaron" unicode="&#x17e;" horiz-adv-x="272" 
d="M9 0v57l137 509h-135v74h252v-57l-137 -509h135v-74h-252z" />
    <glyph glyph-name="Ohorn" unicode="&#x1a0;" horiz-adv-x="364" 
d="M17 583q0 126 43 190.5t122 64.5q78 0 121.5 -65t43.5 -190v-336q0 -125 -43.5 -190t-121.5 -65q-79 0 -122 64.5t-43 190.5v336zM148 125q0 -50 34 -50t34 50v580q0 50 -34 50t-34 -50v-580z" />
    <glyph glyph-name="ohorn" unicode="&#x1a1;" horiz-adv-x="332" 
d="M15 435q0 98 39 155t112 57t111.5 -57t38.5 -155v-230q0 -98 -38.5 -155t-111.5 -57t-112 57t-39 155v230zM135 114q0 -44 31 -44t31 44v412q0 44 -31 44t-31 -44v-412z" />
    <glyph glyph-name="Uhorn" unicode="&#x1af;" horiz-adv-x="338" 
d="M140 115q0 -40 31 -40t31 40v715h114v-658q0 -85 -38 -132.5t-109 -47.5q-70 0 -108 47.5t-38 132.5v658h117v-715z" />
    <glyph glyph-name="uhorn" unicode="&#x1b0;" horiz-adv-x="331" 
d="M308 0h-102v48h-10q-19 -53 -78 -53q-47 0 -73 37t-26 105v503h114v-516q0 -44 30 -44q32 0 32 44v516h113v-640z" />
    <glyph glyph-name="uni0218" unicode="&#x218;" horiz-adv-x="311" 
d="M114 270q8 -34 8 -97v-58q0 -41 31 -41q35 0 35 57q0 91 -71 245l-24 46q-3 6 -13.5 28t-13.5 29t-12 26.5t-12.5 28.5t-10 26.5t-9 29.5t-6 28t-4.5 31t-1 31q0 73 38.5 115.5t106.5 42.5q67 0 103.5 -41.5t36.5 -113.5v-113h-98q-8 34 -8 97v48q0 41 -31 41
q-35 0 -35 -57q0 -79 64 -207l23 -47q90 -184 90 -292q0 -75 -38.5 -118t-106.5 -43t-104 41.5t-36 117.5v119h98z" />
    <glyph glyph-name="uni0219" unicode="&#x219;" horiz-adv-x="298" 
d="M149 647q63 0 99.5 -37t36.5 -104v-94h-94q-8 32 -8 87v26q0 47 -32 47q-34 0 -34 -51q0 -34 15 -67.5t47 -82.5l15 -21q32 -42 47 -65t31 -64t16 -82q0 -70 -38 -108t-101 -38t-99.5 37.5t-36.5 108.5v96h94q8 -32 8 -91v-27q0 -49 32 -49q34 0 34 55q0 59 -63 153
l-15 21q-30 39 -46 62.5t-31.5 64.5t-15.5 82q0 67 38.5 104t100.5 37z" />
    <glyph glyph-name="uni021A" unicode="&#x21a;" horiz-adv-x="307" 
d="M10 830h288v-93h-85v-737h-118v737h-85v93z" />
    <glyph glyph-name="uni021B" unicode="&#x21b;" horiz-adv-x="225" 
d="M8 635q45 4 63 36t22 99h75v-130h51v-74h-51v-566h-114v566h-46v69z" />
    <glyph glyph-name="uni0237" unicode="&#x237;" horiz-adv-x="158" 
d="M136 -59q0 -118 -97 -118q-33 0 -65 16l7 55h12q15 0 22 7.5t7 25.5v713h114v-699zM18 663v40h122v-40h-122z" />
    <glyph glyph-name="Wgrave" unicode="&#x1e80;" horiz-adv-x="462" 
d="M199 830h78l41 -542h10l29 542h97v-10l-60 -820h-117l-34 452h-10l-34 -452h-130l-60 820v10h109l30 -542h10z" />
    <glyph glyph-name="wgrave" unicode="&#x1e81;" horiz-adv-x="434" 
d="M335 640h91v-10l-66 -630h-97l-35 382h-10l-34 -382h-110l-66 630v10h103l28 -397h10l36 397h76l37 -397h10z" />
    <glyph glyph-name="Wacute" unicode="&#x1e82;" horiz-adv-x="462" 
d="M199 830h78l41 -542h10l29 542h97v-10l-60 -820h-117l-34 452h-10l-34 -452h-130l-60 820v10h109l30 -542h10z" />
    <glyph glyph-name="wacute" unicode="&#x1e83;" horiz-adv-x="434" 
d="M335 640h91v-10l-66 -630h-97l-35 382h-10l-34 -382h-110l-66 630v10h103l28 -397h10l36 397h76l37 -397h10z" />
    <glyph glyph-name="Wdieresis" unicode="&#x1e84;" horiz-adv-x="462" 
d="M199 830h78l41 -542h10l29 542h97v-10l-60 -820h-117l-34 452h-10l-34 -452h-130l-60 820v10h109l30 -542h10z" />
    <glyph glyph-name="wdieresis" unicode="&#x1e85;" horiz-adv-x="434" 
d="M335 640h91v-10l-66 -630h-97l-35 382h-10l-34 -382h-110l-66 630v10h103l28 -397h10l36 397h76l37 -397h10z" />
    <glyph glyph-name="uni1EA0" unicode="&#x1ea0;" horiz-adv-x="326" 
d="M83 830h160l75 -820v-10h-115l-13 212h-65l-13 -212h-103v10zM131 306h53l-21 319h-10z" />
    <glyph glyph-name="uni1EA1" unicode="&#x1ea1;" horiz-adv-x="310" 
d="M191 0v43h-10q-17 -50 -74 -50q-43 0 -70 31.5t-28 88.5l-1 25q1 113 84 188l49 50q23 24 31.5 45.5t8.5 58.5v49q0 41 -28 41q-30 0 -30 -41v-31q0 -66 -7 -95h-97v100q0 69 37 106.5t102 37.5q64 0 98 -36t34 -103v-508h-99zM118 126q0 -50 32 -50q31 0 31 46v208h-10
q-5 -18 -19 -42l-9 -17q-25 -43 -25 -117v-28z" />
    <glyph glyph-name="uni1EA2" unicode="&#x1ea2;" horiz-adv-x="326" 
d="M83 830h160l75 -820v-10h-115l-13 212h-65l-13 -212h-103v10zM131 306h53l-21 319h-10z" />
    <glyph glyph-name="uni1EA3" unicode="&#x1ea3;" horiz-adv-x="310" 
d="M191 0v43h-10q-17 -50 -74 -50q-43 0 -70 31.5t-28 88.5l-1 25q1 113 84 188l49 50q23 24 31.5 45.5t8.5 58.5v49q0 41 -28 41q-30 0 -30 -41v-31q0 -66 -7 -95h-97v100q0 69 37 106.5t102 37.5q64 0 98 -36t34 -103v-508h-99zM118 126q0 -50 32 -50q31 0 31 46v208h-10
q-5 -18 -19 -42l-9 -17q-25 -43 -25 -117v-28z" />
    <glyph glyph-name="uni1EA4" unicode="&#x1ea4;" horiz-adv-x="326" 
d="M83 830h160l75 -820v-10h-115l-13 212h-65l-13 -212h-103v10zM131 306h53l-21 319h-10z" />
    <glyph glyph-name="uni1EA5" unicode="&#x1ea5;" horiz-adv-x="310" 
d="M191 0v43h-10q-17 -50 -74 -50q-43 0 -70 31.5t-28 88.5l-1 25q1 113 84 188l49 50q23 24 31.5 45.5t8.5 58.5v49q0 41 -28 41q-30 0 -30 -41v-31q0 -66 -7 -95h-97v100q0 69 37 106.5t102 37.5q64 0 98 -36t34 -103v-508h-99zM118 126q0 -50 32 -50q31 0 31 46v208h-10
q-5 -18 -19 -42l-9 -17q-25 -43 -25 -117v-28z" />
    <glyph glyph-name="uni1EA6" unicode="&#x1ea6;" horiz-adv-x="326" 
d="M83 830h160l75 -820v-10h-115l-13 212h-65l-13 -212h-103v10zM131 306h53l-21 319h-10z" />
    <glyph glyph-name="uni1EA7" unicode="&#x1ea7;" horiz-adv-x="310" 
d="M191 0v43h-10q-17 -50 -74 -50q-43 0 -70 31.5t-28 88.5l-1 25q1 113 84 188l49 50q23 24 31.5 45.5t8.5 58.5v49q0 41 -28 41q-30 0 -30 -41v-31q0 -66 -7 -95h-97v100q0 69 37 106.5t102 37.5q64 0 98 -36t34 -103v-508h-99zM118 126q0 -50 32 -50q31 0 31 46v208h-10
q-5 -18 -19 -42l-9 -17q-25 -43 -25 -117v-28z" />
    <glyph glyph-name="uni1EA8" unicode="&#x1ea8;" horiz-adv-x="326" 
d="M83 830h160l75 -820v-10h-115l-13 212h-65l-13 -212h-103v10zM131 306h53l-21 319h-10z" />
    <glyph glyph-name="uni1EA9" unicode="&#x1ea9;" horiz-adv-x="310" 
d="M191 0v43h-10q-17 -50 -74 -50q-43 0 -70 31.5t-28 88.5l-1 25q1 113 84 188l49 50q23 24 31.5 45.5t8.5 58.5v49q0 41 -28 41q-30 0 -30 -41v-31q0 -66 -7 -95h-97v100q0 69 37 106.5t102 37.5q64 0 98 -36t34 -103v-508h-99zM118 126q0 -50 32 -50q31 0 31 46v208h-10
q-5 -18 -19 -42l-9 -17q-25 -43 -25 -117v-28z" />
    <glyph glyph-name="uni1EAA" unicode="&#x1eaa;" horiz-adv-x="326" 
d="M83 830h160l75 -820v-10h-115l-13 212h-65l-13 -212h-103v10zM131 306h53l-21 319h-10z" />
    <glyph glyph-name="uni1EAB" unicode="&#x1eab;" horiz-adv-x="310" 
d="M191 0v43h-10q-17 -50 -74 -50q-43 0 -70 31.5t-28 88.5l-1 25q1 113 84 188l49 50q23 24 31.5 45.5t8.5 58.5v49q0 41 -28 41q-30 0 -30 -41v-31q0 -66 -7 -95h-97v100q0 69 37 106.5t102 37.5q64 0 98 -36t34 -103v-508h-99zM118 126q0 -50 32 -50q31 0 31 46v208h-10
q-5 -18 -19 -42l-9 -17q-25 -43 -25 -117v-28z" />
    <glyph glyph-name="uni1EAC" unicode="&#x1eac;" horiz-adv-x="326" 
d="M83 830h160l75 -820v-10h-115l-13 212h-65l-13 -212h-103v10zM131 306h53l-21 319h-10z" />
    <glyph glyph-name="uni1EAD" unicode="&#x1ead;" horiz-adv-x="310" 
d="M191 0v43h-10q-17 -50 -74 -50q-43 0 -70 31.5t-28 88.5l-1 25q1 113 84 188l49 50q23 24 31.5 45.5t8.5 58.5v49q0 41 -28 41q-30 0 -30 -41v-31q0 -66 -7 -95h-97v100q0 69 37 106.5t102 37.5q64 0 98 -36t34 -103v-508h-99zM118 126q0 -50 32 -50q31 0 31 46v208h-10
q-5 -18 -19 -42l-9 -17q-25 -43 -25 -117v-28z" />
    <glyph glyph-name="uni1EAE" unicode="&#x1eae;" horiz-adv-x="326" 
d="M83 830h160l75 -820v-10h-115l-13 212h-65l-13 -212h-103v10zM131 306h53l-21 319h-10z" />
    <glyph glyph-name="uni1EAF" unicode="&#x1eaf;" horiz-adv-x="310" 
d="M191 0v43h-10q-17 -50 -74 -50q-43 0 -70 31.5t-28 88.5l-1 25q1 113 84 188l49 50q23 24 31.5 45.5t8.5 58.5v49q0 41 -28 41q-30 0 -30 -41v-31q0 -66 -7 -95h-97v100q0 69 37 106.5t102 37.5q64 0 98 -36t34 -103v-508h-99zM118 126q0 -50 32 -50q31 0 31 46v208h-10
q-5 -18 -19 -42l-9 -17q-25 -43 -25 -117v-28z" />
    <glyph glyph-name="uni1EB0" unicode="&#x1eb0;" horiz-adv-x="326" 
d="M83 830h160l75 -820v-10h-115l-13 212h-65l-13 -212h-103v10zM131 306h53l-21 319h-10z" />
    <glyph glyph-name="uni1EB1" unicode="&#x1eb1;" horiz-adv-x="310" 
d="M191 0v43h-10q-17 -50 -74 -50q-43 0 -70 31.5t-28 88.5l-1 25q1 113 84 188l49 50q23 24 31.5 45.5t8.5 58.5v49q0 41 -28 41q-30 0 -30 -41v-31q0 -66 -7 -95h-97v100q0 69 37 106.5t102 37.5q64 0 98 -36t34 -103v-508h-99zM118 126q0 -50 32 -50q31 0 31 46v208h-10
q-5 -18 -19 -42l-9 -17q-25 -43 -25 -117v-28z" />
    <glyph glyph-name="uni1EB2" unicode="&#x1eb2;" horiz-adv-x="326" 
d="M83 830h160l75 -820v-10h-115l-13 212h-65l-13 -212h-103v10zM131 306h53l-21 319h-10z" />
    <glyph glyph-name="uni1EB3" unicode="&#x1eb3;" horiz-adv-x="310" 
d="M191 0v43h-10q-17 -50 -74 -50q-43 0 -70 31.5t-28 88.5l-1 25q1 113 84 188l49 50q23 24 31.5 45.5t8.5 58.5v49q0 41 -28 41q-30 0 -30 -41v-31q0 -66 -7 -95h-97v100q0 69 37 106.5t102 37.5q64 0 98 -36t34 -103v-508h-99zM118 126q0 -50 32 -50q31 0 31 46v208h-10
q-5 -18 -19 -42l-9 -17q-25 -43 -25 -117v-28z" />
    <glyph glyph-name="uni1EB4" unicode="&#x1eb4;" horiz-adv-x="326" 
d="M83 830h160l75 -820v-10h-115l-13 212h-65l-13 -212h-103v10zM131 306h53l-21 319h-10z" />
    <glyph glyph-name="uni1EB5" unicode="&#x1eb5;" horiz-adv-x="310" 
d="M191 0v43h-10q-17 -50 -74 -50q-43 0 -70 31.5t-28 88.5l-1 25q1 113 84 188l49 50q23 24 31.5 45.5t8.5 58.5v49q0 41 -28 41q-30 0 -30 -41v-31q0 -66 -7 -95h-97v100q0 69 37 106.5t102 37.5q64 0 98 -36t34 -103v-508h-99zM118 126q0 -50 32 -50q31 0 31 46v208h-10
q-5 -18 -19 -42l-9 -17q-25 -43 -25 -117v-28z" />
    <glyph glyph-name="uni1EB6" unicode="&#x1eb6;" horiz-adv-x="326" 
d="M83 830h160l75 -820v-10h-115l-13 212h-65l-13 -212h-103v10zM131 306h53l-21 319h-10z" />
    <glyph glyph-name="uni1EB7" unicode="&#x1eb7;" horiz-adv-x="310" 
d="M191 0v43h-10q-17 -50 -74 -50q-43 0 -70 31.5t-28 88.5l-1 25q1 113 84 188l49 50q23 24 31.5 45.5t8.5 58.5v49q0 41 -28 41q-30 0 -30 -41v-31q0 -66 -7 -95h-97v100q0 69 37 106.5t102 37.5q64 0 98 -36t34 -103v-508h-99zM118 126q0 -50 32 -50q31 0 31 46v208h-10
q-5 -18 -19 -42l-9 -17q-25 -43 -25 -117v-28z" />
    <glyph glyph-name="uni1EB8" unicode="&#x1eb8;" horiz-adv-x="275" 
d="M24 830h238v-93h-120v-269h105v-93h-105v-282h120v-93h-238v830z" />
    <glyph glyph-name="uni1EB9" unicode="&#x1eb9;" horiz-adv-x="314" 
d="M15 438q0 96 37 152.5t110 56.5q69 0 103.5 -52t34.5 -132v-153h-168v-196q0 -44 30 -44q31 0 31 44v61q0 66 8 100h99v-98q0 -80 -34.5 -132t-103.5 -52q-73 0 -110 56.5t-37 152.5v236zM132 384h61v142q0 44 -31 44q-30 0 -30 -44v-142z" />
    <glyph glyph-name="uni1EBA" unicode="&#x1eba;" horiz-adv-x="275" 
d="M24 830h238v-93h-120v-269h105v-93h-105v-282h120v-93h-238v830z" />
    <glyph glyph-name="uni1EBB" unicode="&#x1ebb;" horiz-adv-x="314" 
d="M15 438q0 96 37 152.5t110 56.5q69 0 103.5 -52t34.5 -132v-153h-168v-196q0 -44 30 -44q31 0 31 44v61q0 66 8 100h99v-98q0 -80 -34.5 -132t-103.5 -52q-73 0 -110 56.5t-37 152.5v236zM132 384h61v142q0 44 -31 44q-30 0 -30 -44v-142z" />
    <glyph glyph-name="uni1EBC" unicode="&#x1ebc;" horiz-adv-x="275" 
d="M24 830h238v-93h-120v-269h105v-93h-105v-282h120v-93h-238v830z" />
    <glyph glyph-name="uni1EBD" unicode="&#x1ebd;" horiz-adv-x="314" 
d="M15 438q0 96 37 152.5t110 56.5q69 0 103.5 -52t34.5 -132v-153h-168v-196q0 -44 30 -44q31 0 31 44v61q0 66 8 100h99v-98q0 -80 -34.5 -132t-103.5 -52q-73 0 -110 56.5t-37 152.5v236zM132 384h61v142q0 44 -31 44q-30 0 -30 -44v-142z" />
    <glyph glyph-name="uni1EBE" unicode="&#x1ebe;" horiz-adv-x="275" 
d="M24 830h238v-93h-120v-269h105v-93h-105v-282h120v-93h-238v830z" />
    <glyph glyph-name="uni1EBF" unicode="&#x1ebf;" horiz-adv-x="314" 
d="M15 438q0 96 37 152.5t110 56.5q69 0 103.5 -52t34.5 -132v-153h-168v-196q0 -44 30 -44q31 0 31 44v61q0 66 8 100h99v-98q0 -80 -34.5 -132t-103.5 -52q-73 0 -110 56.5t-37 152.5v236zM132 384h61v142q0 44 -31 44q-30 0 -30 -44v-142z" />
    <glyph glyph-name="uni1EC0" unicode="&#x1ec0;" horiz-adv-x="275" 
d="M24 830h238v-93h-120v-269h105v-93h-105v-282h120v-93h-238v830z" />
    <glyph glyph-name="uni1EC1" unicode="&#x1ec1;" horiz-adv-x="314" 
d="M15 438q0 96 37 152.5t110 56.5q69 0 103.5 -52t34.5 -132v-153h-168v-196q0 -44 30 -44q31 0 31 44v61q0 66 8 100h99v-98q0 -80 -34.5 -132t-103.5 -52q-73 0 -110 56.5t-37 152.5v236zM132 384h61v142q0 44 -31 44q-30 0 -30 -44v-142z" />
    <glyph glyph-name="uni1EC2" unicode="&#x1ec2;" horiz-adv-x="275" 
d="M24 830h238v-93h-120v-269h105v-93h-105v-282h120v-93h-238v830z" />
    <glyph glyph-name="uni1EC3" unicode="&#x1ec3;" horiz-adv-x="314" 
d="M15 438q0 96 37 152.5t110 56.5q69 0 103.5 -52t34.5 -132v-153h-168v-196q0 -44 30 -44q31 0 31 44v61q0 66 8 100h99v-98q0 -80 -34.5 -132t-103.5 -52q-73 0 -110 56.5t-37 152.5v236zM132 384h61v142q0 44 -31 44q-30 0 -30 -44v-142z" />
    <glyph glyph-name="uni1EC4" unicode="&#x1ec4;" horiz-adv-x="275" 
d="M24 830h238v-93h-120v-269h105v-93h-105v-282h120v-93h-238v830z" />
    <glyph glyph-name="uni1EC5" unicode="&#x1ec5;" horiz-adv-x="314" 
d="M15 438q0 96 37 152.5t110 56.5q69 0 103.5 -52t34.5 -132v-153h-168v-196q0 -44 30 -44q31 0 31 44v61q0 66 8 100h99v-98q0 -80 -34.5 -132t-103.5 -52q-73 0 -110 56.5t-37 152.5v236zM132 384h61v142q0 44 -31 44q-30 0 -30 -44v-142z" />
    <glyph glyph-name="uni1EC6" unicode="&#x1ec6;" horiz-adv-x="275" 
d="M24 830h238v-93h-120v-269h105v-93h-105v-282h120v-93h-238v830z" />
    <glyph glyph-name="uni1EC7" unicode="&#x1ec7;" horiz-adv-x="314" 
d="M15 438q0 96 37 152.5t110 56.5q69 0 103.5 -52t34.5 -132v-153h-168v-196q0 -44 30 -44q31 0 31 44v61q0 66 8 100h99v-98q0 -80 -34.5 -132t-103.5 -52q-73 0 -110 56.5t-37 152.5v236zM132 384h61v142q0 44 -31 44q-30 0 -30 -44v-142z" />
    <glyph glyph-name="uni1EC8" unicode="&#x1ec8;" horiz-adv-x="165" 
d="M24 830h118v-830h-118v830z" />
    <glyph glyph-name="uni1EC9" unicode="&#x1ec9;" horiz-adv-x="159" 
d="M23 640h113v-640h-113v640zM19 663v40h122v-40h-122z" />
    <glyph glyph-name="uni1ECA" unicode="&#x1eca;" horiz-adv-x="165" 
d="M24 830h118v-830h-118v830z" />
    <glyph glyph-name="uni1ECB" unicode="&#x1ecb;" horiz-adv-x="159" 
d="M23 640h113v-640h-113v640zM19 663v40h122v-40h-122z" />
    <glyph glyph-name="uni1ECC" unicode="&#x1ecc;" horiz-adv-x="364" 
d="M17 583q0 126 43 190.5t122 64.5q78 0 121.5 -65t43.5 -190v-336q0 -125 -43.5 -190t-121.5 -65q-79 0 -122 64.5t-43 190.5v336zM148 125q0 -50 34 -50t34 50v580q0 50 -34 50t-34 -50v-580z" />
    <glyph glyph-name="uni1ECD" unicode="&#x1ecd;" horiz-adv-x="332" 
d="M15 435q0 98 39 155t112 57t111.5 -57t38.5 -155v-230q0 -98 -38.5 -155t-111.5 -57t-112 57t-39 155v230zM135 114q0 -44 31 -44t31 44v412q0 44 -31 44t-31 -44v-412z" />
    <glyph glyph-name="uni1ECE" unicode="&#x1ece;" horiz-adv-x="364" 
d="M17 583q0 126 43 190.5t122 64.5q78 0 121.5 -65t43.5 -190v-336q0 -125 -43.5 -190t-121.5 -65q-79 0 -122 64.5t-43 190.5v336zM148 125q0 -50 34 -50t34 50v580q0 50 -34 50t-34 -50v-580z" />
    <glyph glyph-name="uni1ECF" unicode="&#x1ecf;" horiz-adv-x="332" 
d="M15 435q0 98 39 155t112 57t111.5 -57t38.5 -155v-230q0 -98 -38.5 -155t-111.5 -57t-112 57t-39 155v230zM135 114q0 -44 31 -44t31 44v412q0 44 -31 44t-31 -44v-412z" />
    <glyph glyph-name="uni1ED0" unicode="&#x1ed0;" horiz-adv-x="364" 
d="M17 583q0 126 43 190.5t122 64.5q78 0 121.5 -65t43.5 -190v-336q0 -125 -43.5 -190t-121.5 -65q-79 0 -122 64.5t-43 190.5v336zM148 125q0 -50 34 -50t34 50v580q0 50 -34 50t-34 -50v-580z" />
    <glyph glyph-name="uni1ED1" unicode="&#x1ed1;" horiz-adv-x="332" 
d="M15 435q0 98 39 155t112 57t111.5 -57t38.5 -155v-230q0 -98 -38.5 -155t-111.5 -57t-112 57t-39 155v230zM135 114q0 -44 31 -44t31 44v412q0 44 -31 44t-31 -44v-412z" />
    <glyph glyph-name="uni1ED2" unicode="&#x1ed2;" horiz-adv-x="364" 
d="M17 583q0 126 43 190.5t122 64.5q78 0 121.5 -65t43.5 -190v-336q0 -125 -43.5 -190t-121.5 -65q-79 0 -122 64.5t-43 190.5v336zM148 125q0 -50 34 -50t34 50v580q0 50 -34 50t-34 -50v-580z" />
    <glyph glyph-name="uni1ED3" unicode="&#x1ed3;" horiz-adv-x="332" 
d="M15 435q0 98 39 155t112 57t111.5 -57t38.5 -155v-230q0 -98 -38.5 -155t-111.5 -57t-112 57t-39 155v230zM135 114q0 -44 31 -44t31 44v412q0 44 -31 44t-31 -44v-412z" />
    <glyph glyph-name="uni1ED4" unicode="&#x1ed4;" horiz-adv-x="364" 
d="M17 583q0 126 43 190.5t122 64.5q78 0 121.5 -65t43.5 -190v-336q0 -125 -43.5 -190t-121.5 -65q-79 0 -122 64.5t-43 190.5v336zM148 125q0 -50 34 -50t34 50v580q0 50 -34 50t-34 -50v-580z" />
    <glyph glyph-name="uni1ED5" unicode="&#x1ed5;" horiz-adv-x="332" 
d="M15 435q0 98 39 155t112 57t111.5 -57t38.5 -155v-230q0 -98 -38.5 -155t-111.5 -57t-112 57t-39 155v230zM135 114q0 -44 31 -44t31 44v412q0 44 -31 44t-31 -44v-412z" />
    <glyph glyph-name="uni1ED6" unicode="&#x1ed6;" horiz-adv-x="364" 
d="M17 583q0 126 43 190.5t122 64.5q78 0 121.5 -65t43.5 -190v-336q0 -125 -43.5 -190t-121.5 -65q-79 0 -122 64.5t-43 190.5v336zM148 125q0 -50 34 -50t34 50v580q0 50 -34 50t-34 -50v-580z" />
    <glyph glyph-name="uni1ED7" unicode="&#x1ed7;" horiz-adv-x="332" 
d="M15 435q0 98 39 155t112 57t111.5 -57t38.5 -155v-230q0 -98 -38.5 -155t-111.5 -57t-112 57t-39 155v230zM135 114q0 -44 31 -44t31 44v412q0 44 -31 44t-31 -44v-412z" />
    <glyph glyph-name="uni1ED8" unicode="&#x1ed8;" horiz-adv-x="364" 
d="M17 583q0 126 43 190.5t122 64.5q78 0 121.5 -65t43.5 -190v-336q0 -125 -43.5 -190t-121.5 -65q-79 0 -122 64.5t-43 190.5v336zM148 125q0 -50 34 -50t34 50v580q0 50 -34 50t-34 -50v-580z" />
    <glyph glyph-name="uni1ED9" unicode="&#x1ed9;" horiz-adv-x="332" 
d="M15 435q0 98 39 155t112 57t111.5 -57t38.5 -155v-230q0 -98 -38.5 -155t-111.5 -57t-112 57t-39 155v230zM135 114q0 -44 31 -44t31 44v412q0 44 -31 44t-31 -44v-412z" />
    <glyph glyph-name="uni1EDA" unicode="&#x1eda;" horiz-adv-x="364" 
d="M17 583q0 126 43 190.5t122 64.5q78 0 121.5 -65t43.5 -190v-336q0 -125 -43.5 -190t-121.5 -65q-79 0 -122 64.5t-43 190.5v336zM148 125q0 -50 34 -50t34 50v580q0 50 -34 50t-34 -50v-580z" />
    <glyph glyph-name="uni1EDB" unicode="&#x1edb;" horiz-adv-x="332" 
d="M15 435q0 98 39 155t112 57t111.5 -57t38.5 -155v-230q0 -98 -38.5 -155t-111.5 -57t-112 57t-39 155v230zM135 114q0 -44 31 -44t31 44v412q0 44 -31 44t-31 -44v-412z" />
    <glyph glyph-name="uni1EDC" unicode="&#x1edc;" horiz-adv-x="364" 
d="M17 583q0 126 43 190.5t122 64.5q78 0 121.5 -65t43.5 -190v-336q0 -125 -43.5 -190t-121.5 -65q-79 0 -122 64.5t-43 190.5v336zM148 125q0 -50 34 -50t34 50v580q0 50 -34 50t-34 -50v-580z" />
    <glyph glyph-name="uni1EDD" unicode="&#x1edd;" horiz-adv-x="332" 
d="M15 435q0 98 39 155t112 57t111.5 -57t38.5 -155v-230q0 -98 -38.5 -155t-111.5 -57t-112 57t-39 155v230zM135 114q0 -44 31 -44t31 44v412q0 44 -31 44t-31 -44v-412z" />
    <glyph glyph-name="uni1EDE" unicode="&#x1ede;" horiz-adv-x="364" 
d="M17 583q0 126 43 190.5t122 64.5q78 0 121.5 -65t43.5 -190v-336q0 -125 -43.5 -190t-121.5 -65q-79 0 -122 64.5t-43 190.5v336zM148 125q0 -50 34 -50t34 50v580q0 50 -34 50t-34 -50v-580z" />
    <glyph glyph-name="uni1EDF" unicode="&#x1edf;" horiz-adv-x="332" 
d="M15 435q0 98 39 155t112 57t111.5 -57t38.5 -155v-230q0 -98 -38.5 -155t-111.5 -57t-112 57t-39 155v230zM135 114q0 -44 31 -44t31 44v412q0 44 -31 44t-31 -44v-412z" />
    <glyph glyph-name="uni1EE0" unicode="&#x1ee0;" horiz-adv-x="364" 
d="M17 583q0 126 43 190.5t122 64.5q78 0 121.5 -65t43.5 -190v-336q0 -125 -43.5 -190t-121.5 -65q-79 0 -122 64.5t-43 190.5v336zM148 125q0 -50 34 -50t34 50v580q0 50 -34 50t-34 -50v-580z" />
    <glyph glyph-name="uni1EE1" unicode="&#x1ee1;" horiz-adv-x="332" 
d="M15 435q0 98 39 155t112 57t111.5 -57t38.5 -155v-230q0 -98 -38.5 -155t-111.5 -57t-112 57t-39 155v230zM135 114q0 -44 31 -44t31 44v412q0 44 -31 44t-31 -44v-412z" />
    <glyph glyph-name="uni1EE2" unicode="&#x1ee2;" horiz-adv-x="364" 
d="M17 583q0 126 43 190.5t122 64.5q78 0 121.5 -65t43.5 -190v-336q0 -125 -43.5 -190t-121.5 -65q-79 0 -122 64.5t-43 190.5v336zM148 125q0 -50 34 -50t34 50v580q0 50 -34 50t-34 -50v-580z" />
    <glyph glyph-name="uni1EE3" unicode="&#x1ee3;" horiz-adv-x="332" 
d="M15 435q0 98 39 155t112 57t111.5 -57t38.5 -155v-230q0 -98 -38.5 -155t-111.5 -57t-112 57t-39 155v230zM135 114q0 -44 31 -44t31 44v412q0 44 -31 44t-31 -44v-412z" />
    <glyph glyph-name="uni1EE4" unicode="&#x1ee4;" horiz-adv-x="338" 
d="M140 115q0 -40 31 -40t31 40v715h114v-658q0 -85 -38 -132.5t-109 -47.5q-70 0 -108 47.5t-38 132.5v658h117v-715z" />
    <glyph glyph-name="uni1EE5" unicode="&#x1ee5;" horiz-adv-x="331" 
d="M308 0h-102v48h-10q-19 -53 -78 -53q-47 0 -73 37t-26 105v503h114v-516q0 -44 30 -44q32 0 32 44v516h113v-640z" />
    <glyph glyph-name="uni1EE6" unicode="&#x1ee6;" horiz-adv-x="338" 
d="M140 115q0 -40 31 -40t31 40v715h114v-658q0 -85 -38 -132.5t-109 -47.5q-70 0 -108 47.5t-38 132.5v658h117v-715z" />
    <glyph glyph-name="uni1EE7" unicode="&#x1ee7;" horiz-adv-x="331" 
d="M308 0h-102v48h-10q-19 -53 -78 -53q-47 0 -73 37t-26 105v503h114v-516q0 -44 30 -44q32 0 32 44v516h113v-640z" />
    <glyph glyph-name="uni1EE8" unicode="&#x1ee8;" horiz-adv-x="338" 
d="M140 115q0 -40 31 -40t31 40v715h114v-658q0 -85 -38 -132.5t-109 -47.5q-70 0 -108 47.5t-38 132.5v658h117v-715z" />
    <glyph glyph-name="uni1EE9" unicode="&#x1ee9;" horiz-adv-x="331" 
d="M308 0h-102v48h-10q-19 -53 -78 -53q-47 0 -73 37t-26 105v503h114v-516q0 -44 30 -44q32 0 32 44v516h113v-640z" />
    <glyph glyph-name="uni1EEA" unicode="&#x1eea;" horiz-adv-x="338" 
d="M140 115q0 -40 31 -40t31 40v715h114v-658q0 -85 -38 -132.5t-109 -47.5q-70 0 -108 47.5t-38 132.5v658h117v-715z" />
    <glyph glyph-name="uni1EEB" unicode="&#x1eeb;" horiz-adv-x="331" 
d="M308 0h-102v48h-10q-19 -53 -78 -53q-47 0 -73 37t-26 105v503h114v-516q0 -44 30 -44q32 0 32 44v516h113v-640z" />
    <glyph glyph-name="uni1EEC" unicode="&#x1eec;" horiz-adv-x="338" 
d="M140 115q0 -40 31 -40t31 40v715h114v-658q0 -85 -38 -132.5t-109 -47.5q-70 0 -108 47.5t-38 132.5v658h117v-715z" />
    <glyph glyph-name="uni1EED" unicode="&#x1eed;" horiz-adv-x="331" 
d="M308 0h-102v48h-10q-19 -53 -78 -53q-47 0 -73 37t-26 105v503h114v-516q0 -44 30 -44q32 0 32 44v516h113v-640z" />
    <glyph glyph-name="uni1EEE" unicode="&#x1eee;" horiz-adv-x="338" 
d="M140 115q0 -40 31 -40t31 40v715h114v-658q0 -85 -38 -132.5t-109 -47.5q-70 0 -108 47.5t-38 132.5v658h117v-715z" />
    <glyph glyph-name="uni1EEF" unicode="&#x1eef;" horiz-adv-x="331" 
d="M308 0h-102v48h-10q-19 -53 -78 -53q-47 0 -73 37t-26 105v503h114v-516q0 -44 30 -44q32 0 32 44v516h113v-640z" />
    <glyph glyph-name="uni1EF0" unicode="&#x1ef0;" horiz-adv-x="338" 
d="M140 115q0 -40 31 -40t31 40v715h114v-658q0 -85 -38 -132.5t-109 -47.5q-70 0 -108 47.5t-38 132.5v658h117v-715z" />
    <glyph glyph-name="uni1EF1" unicode="&#x1ef1;" horiz-adv-x="331" 
d="M308 0h-102v48h-10q-19 -53 -78 -53q-47 0 -73 37t-26 105v503h114v-516q0 -44 30 -44q32 0 32 44v516h113v-640z" />
    <glyph glyph-name="Ygrave" unicode="&#x1ef2;" horiz-adv-x="325" 
d="M221 830h99v-10l-98 -480v-340h-118v340l-99 480v10h112l46 -299h10z" />
    <glyph glyph-name="ygrave" unicode="&#x1ef3;" horiz-adv-x="294" 
d="M187 640h98v-10l-87 -800h-90v10l21 160h-51l-69 630v10h110l29 -429h10z" />
    <glyph glyph-name="uni1EF4" unicode="&#x1ef4;" horiz-adv-x="325" 
d="M221 830h99v-10l-98 -480v-340h-118v340l-99 480v10h112l46 -299h10z" />
    <glyph glyph-name="uni1EF5" unicode="&#x1ef5;" horiz-adv-x="294" 
d="M187 640h98v-10l-87 -800h-90v10l21 160h-51l-69 630v10h110l29 -429h10z" />
    <glyph glyph-name="uni1EF6" unicode="&#x1ef6;" horiz-adv-x="325" 
d="M221 830h99v-10l-98 -480v-340h-118v340l-99 480v10h112l46 -299h10z" />
    <glyph glyph-name="uni1EF7" unicode="&#x1ef7;" horiz-adv-x="294" 
d="M187 640h98v-10l-87 -800h-90v10l21 160h-51l-69 630v10h110l29 -429h10z" />
    <glyph glyph-name="uni1EF8" unicode="&#x1ef8;" horiz-adv-x="325" 
d="M221 830h99v-10l-98 -480v-340h-118v340l-99 480v10h112l46 -299h10z" />
    <glyph glyph-name="uni1EF9" unicode="&#x1ef9;" horiz-adv-x="294" 
d="M187 640h98v-10l-87 -800h-90v10l21 160h-51l-69 630v10h110l29 -429h10z" />
    <glyph glyph-name="endash" unicode="&#x2013;" horiz-adv-x="360" 
d="M23 345h314v-42h-314v42z" />
    <glyph glyph-name="emdash" unicode="&#x2014;" horiz-adv-x="550" 
d="M23 345h504v-42h-504v42z" />
    <glyph glyph-name="quoteleft" unicode="&#x2018;" horiz-adv-x="126" 
d="M100 631h-75v127l42 99h33v-226z" />
    <glyph glyph-name="quoteright" unicode="&#x2019;" horiz-adv-x="126" 
d="M25 830h75v-127l-41 -98h-34v225z" />
    <glyph glyph-name="quotesinglbase" unicode="&#x201a;" horiz-adv-x="126" 
d="M25 154h75v-127l-41 -99h-34v226z" />
    <glyph glyph-name="quotedblleft" unicode="&#x201c;" horiz-adv-x="220" 
d="M195 631h-69v127l35 99h34v-226zM25 631v127l36 99h33v-226h-69z" />
    <glyph glyph-name="quotedblright" unicode="&#x201d;" horiz-adv-x="220" 
d="M25 830h69v-127l-35 -98h-34v225zM126 605v225h69v-127l-36 -98h-33z" />
    <glyph glyph-name="quotedblbase" unicode="&#x201e;" horiz-adv-x="220" 
d="M25 154h69v-127l-35 -99h-34v226zM126 -72v226h69v-127l-36 -99h-33z" />
    <glyph glyph-name="i.loclTRK" horiz-adv-x="159" 
d="M23 640h113v-640h-113v640zM19 663v40h122v-40h-122z" />
    <glyph glyph-name="uni1EDB.short" horiz-adv-x="332" 
d="M15 435q0 98 39 155t112 57t111.5 -57t38.5 -155v-230q0 -98 -38.5 -155t-111.5 -57t-112 57t-39 155v230zM135 114q0 -44 31 -44t31 44v412q0 44 -31 44t-31 -44v-412z" />
    <glyph glyph-name="uni1EDD.short" horiz-adv-x="332" 
d="M15 435q0 98 39 155t112 57t111.5 -57t38.5 -155v-230q0 -98 -38.5 -155t-111.5 -57t-112 57t-39 155v230zM135 114q0 -44 31 -44t31 44v412q0 44 -31 44t-31 -44v-412z" />
    <glyph glyph-name="a.ss01" 
d="M306 640v-640h-103v44h-10q-17 -49 -72 -49q-49 0 -77.5 44t-28.5 127v308q0 83 28.5 127t77.5 44q55 0 72 -49h10l11 44h92zM130 121q0 -44 31 -44t31 44v398q0 44 -31 44t-31 -44v-398z" />
    <glyph glyph-name="aacute.ss01" 
d="M306 640v-640h-103v44h-10q-17 -49 -72 -49q-49 0 -77.5 44t-28.5 127v308q0 83 28.5 127t77.5 44q55 0 72 -49h10l11 44h92zM130 121q0 -44 31 -44t31 44v398q0 44 -31 44t-31 -44v-398z" />
    <glyph glyph-name="abreve.ss01" 
d="M306 640v-640h-103v44h-10q-17 -49 -72 -49q-49 0 -77.5 44t-28.5 127v308q0 83 28.5 127t77.5 44q55 0 72 -49h10l11 44h92zM130 121q0 -44 31 -44t31 44v398q0 44 -31 44t-31 -44v-398z" />
    <glyph glyph-name="uni1EAF.ss01" 
d="M306 640v-640h-103v44h-10q-17 -49 -72 -49q-49 0 -77.5 44t-28.5 127v308q0 83 28.5 127t77.5 44q55 0 72 -49h10l11 44h92zM130 121q0 -44 31 -44t31 44v398q0 44 -31 44t-31 -44v-398z" />
    <glyph glyph-name="uni1EB7.ss01" 
d="M306 640v-640h-103v44h-10q-17 -49 -72 -49q-49 0 -77.5 44t-28.5 127v308q0 83 28.5 127t77.5 44q55 0 72 -49h10l11 44h92zM130 121q0 -44 31 -44t31 44v398q0 44 -31 44t-31 -44v-398z" />
    <glyph glyph-name="uni1EB1.ss01" 
d="M306 640v-640h-103v44h-10q-17 -49 -72 -49q-49 0 -77.5 44t-28.5 127v308q0 83 28.5 127t77.5 44q55 0 72 -49h10l11 44h92zM130 121q0 -44 31 -44t31 44v398q0 44 -31 44t-31 -44v-398z" />
    <glyph glyph-name="uni1EB3.ss01" 
d="M306 640v-640h-103v44h-10q-17 -49 -72 -49q-49 0 -77.5 44t-28.5 127v308q0 83 28.5 127t77.5 44q55 0 72 -49h10l11 44h92zM130 121q0 -44 31 -44t31 44v398q0 44 -31 44t-31 -44v-398z" />
    <glyph glyph-name="uni1EB5.ss01" 
d="M306 640v-640h-103v44h-10q-17 -49 -72 -49q-49 0 -77.5 44t-28.5 127v308q0 83 28.5 127t77.5 44q55 0 72 -49h10l11 44h92zM130 121q0 -44 31 -44t31 44v398q0 44 -31 44t-31 -44v-398z" />
    <glyph glyph-name="acircumflex.ss01" 
d="M306 640v-640h-103v44h-10q-17 -49 -72 -49q-49 0 -77.5 44t-28.5 127v308q0 83 28.5 127t77.5 44q55 0 72 -49h10l11 44h92zM130 121q0 -44 31 -44t31 44v398q0 44 -31 44t-31 -44v-398z" />
    <glyph glyph-name="uni1EA5.ss01" 
d="M306 640v-640h-103v44h-10q-17 -49 -72 -49q-49 0 -77.5 44t-28.5 127v308q0 83 28.5 127t77.5 44q55 0 72 -49h10l11 44h92zM130 121q0 -44 31 -44t31 44v398q0 44 -31 44t-31 -44v-398z" />
    <glyph glyph-name="uni1EAD.ss01" 
d="M306 640v-640h-103v44h-10q-17 -49 -72 -49q-49 0 -77.5 44t-28.5 127v308q0 83 28.5 127t77.5 44q55 0 72 -49h10l11 44h92zM130 121q0 -44 31 -44t31 44v398q0 44 -31 44t-31 -44v-398z" />
    <glyph glyph-name="uni1EA7.ss01" 
d="M306 640v-640h-103v44h-10q-17 -49 -72 -49q-49 0 -77.5 44t-28.5 127v308q0 83 28.5 127t77.5 44q55 0 72 -49h10l11 44h92zM130 121q0 -44 31 -44t31 44v398q0 44 -31 44t-31 -44v-398z" />
    <glyph glyph-name="uni1EA9.ss01" 
d="M306 640v-640h-103v44h-10q-17 -49 -72 -49q-49 0 -77.5 44t-28.5 127v308q0 83 28.5 127t77.5 44q55 0 72 -49h10l11 44h92zM130 121q0 -44 31 -44t31 44v398q0 44 -31 44t-31 -44v-398z" />
    <glyph glyph-name="uni1EAB.ss01" 
d="M306 640v-640h-103v44h-10q-17 -49 -72 -49q-49 0 -77.5 44t-28.5 127v308q0 83 28.5 127t77.5 44q55 0 72 -49h10l11 44h92zM130 121q0 -44 31 -44t31 44v398q0 44 -31 44t-31 -44v-398z" />
    <glyph glyph-name="adieresis.ss01" 
d="M306 640v-640h-103v44h-10q-17 -49 -72 -49q-49 0 -77.5 44t-28.5 127v308q0 83 28.5 127t77.5 44q55 0 72 -49h10l11 44h92zM130 121q0 -44 31 -44t31 44v398q0 44 -31 44t-31 -44v-398z" />
    <glyph glyph-name="uni1EA1.ss01" 
d="M306 640v-640h-103v44h-10q-17 -49 -72 -49q-49 0 -77.5 44t-28.5 127v308q0 83 28.5 127t77.5 44q55 0 72 -49h10l11 44h92zM130 121q0 -44 31 -44t31 44v398q0 44 -31 44t-31 -44v-398z" />
    <glyph glyph-name="agrave.ss01" 
d="M306 640v-640h-103v44h-10q-17 -49 -72 -49q-49 0 -77.5 44t-28.5 127v308q0 83 28.5 127t77.5 44q55 0 72 -49h10l11 44h92zM130 121q0 -44 31 -44t31 44v398q0 44 -31 44t-31 -44v-398z" />
    <glyph glyph-name="uni1EA3.ss01" 
d="M306 640v-640h-103v44h-10q-17 -49 -72 -49q-49 0 -77.5 44t-28.5 127v308q0 83 28.5 127t77.5 44q55 0 72 -49h10l11 44h92zM130 121q0 -44 31 -44t31 44v398q0 44 -31 44t-31 -44v-398z" />
    <glyph glyph-name="amacron.ss01" 
d="M306 640v-640h-103v44h-10q-17 -49 -72 -49q-49 0 -77.5 44t-28.5 127v308q0 83 28.5 127t77.5 44q55 0 72 -49h10l11 44h92zM130 121q0 -44 31 -44t31 44v398q0 44 -31 44t-31 -44v-398z" />
    <glyph glyph-name="aogonek.ss01" 
d="M306 640v-640h-103v44h-10q-17 -49 -72 -49q-49 0 -77.5 44t-28.5 127v308q0 83 28.5 127t77.5 44q55 0 72 -49h10l11 44h92zM130 121q0 -44 31 -44t31 44v398q0 44 -31 44t-31 -44v-398z" />
    <glyph glyph-name="aring.ss01" 
d="M306 640v-640h-103v44h-10q-17 -49 -72 -49q-49 0 -77.5 44t-28.5 127v308q0 83 28.5 127t77.5 44q55 0 72 -49h10l11 44h92zM130 121q0 -44 31 -44t31 44v398q0 44 -31 44t-31 -44v-398z" />
    <glyph glyph-name="atilde.ss01" 
d="M306 640v-640h-103v44h-10q-17 -49 -72 -49q-49 0 -77.5 44t-28.5 127v308q0 83 28.5 127t77.5 44q55 0 72 -49h10l11 44h92zM130 121q0 -44 31 -44t31 44v398q0 44 -31 44t-31 -44v-398z" />
    <glyph glyph-name="zero.zero" horiz-adv-x="343" 
d="M18 613q0 111 40 168t113 57q74 0 114 -56.5t40 -168.5v-396q0 -112 -40 -168.5t-114 -56.5q-73 0 -113 57t-40 168v396zM139 121q0 -47 32 -47q33 0 33 47v296h-10l-55 -83v-213zM139 417h10l55 84v208q0 47 -33 47q-32 0 -32 -47v-292z" />
    <glyph glyph-name="zero.lf" horiz-adv-x="343" 
d="M18 612q0 111 40 168t113 57q74 0 114 -56.5t40 -168.5v-394q0 -112 -40 -168.5t-114 -56.5q-73 0 -113 57t-40 168v394zM139 122q0 -48 32 -48q33 0 33 48v586q0 48 -33 48q-32 0 -32 -48v-586z" />
    <glyph glyph-name="one.lf" horiz-adv-x="227" 
d="M8 723q50 1 72 27t26 80h97v-830h-115v654h-80v69z" />
    <glyph glyph-name="two.lf" horiz-adv-x="309" 
d="M15 679q0 75 37.5 117.5t104.5 42.5q65 0 102.5 -42.5t37.5 -114.5q0 -65 -18 -133t-55 -170l-93 -286h165v-93h-283v76l127 382q47 135 47 244q0 55 -34 55q-30 0 -30 -43v-46q0 -66 -8 -100h-100v111z" />
    <glyph glyph-name="three.lf" horiz-adv-x="312" 
d="M147 464q35 0 35 49v195q0 49 -30 49q-31 0 -31 -49v-35q0 -72 -8 -106h-98v90q0 88 36.5 135t105.5 47q70 0 105 -47.5t35 -134.5v-58q0 -118 -68 -171v-10q71 -49 71 -168v-73q0 -87 -36 -136t-107 -49t-108 49t-37 137v95h100q8 -34 8 -100v-50q0 -49 32 -49
q30 0 30 48v206q0 49 -35 49h-54v87h54z" />
    <glyph glyph-name="four.lf" horiz-adv-x="298" 
d="M7 203v74l121 553h146v-830h-111v203h-156zM88 296h75v319h-10z" />
    <glyph glyph-name="five.lf" horiz-adv-x="316" 
d="M15 391l12 439h272v-93h-171l-7 -240h10q22 43 70 43t75 -40.5t27 -116.5v-181q0 -210 -147 -210q-68 0 -104.5 47.5t-36.5 125.5v128h100q8 -34 8 -100v-73q0 -46 31 -46t31 46v292q0 42 -30 42q-36 0 -41 -63h-99z" />
    <glyph glyph-name="six.lf" horiz-adv-x="331" 
d="M18 609q0 229 151 229q67 0 103 -48.5t36 -130.5v-91h-101q-8 34 -8 100v45q0 44 -30 44q-31 0 -31 -46v-258h10q21 38 69 38q44 0 72 -40.5t28 -112.5v-157q0 -88 -37.5 -138.5t-107.5 -50.5q-154 0 -154 229v388zM138 121q0 -47 31 -47q32 0 32 47v241q0 47 -32 47
q-31 0 -31 -47v-241z" />
    <glyph glyph-name="seven.lf" horiz-adv-x="293" 
d="M10 830h272v-77l-116 -753h-113v10l113 726h-156v94z" />
    <glyph glyph-name="eight.lf" horiz-adv-x="326" 
d="M12 250q0 117 67 168v10q-64 51 -64 164v64q0 86 38.5 134.5t109.5 48.5t109.5 -48.5t38.5 -134.5v-64q0 -112 -65 -164v-10q67 -51 67 -168v-71q0 -87 -39.5 -137t-110.5 -50q-72 0 -111.5 49.5t-39.5 137.5v71zM131 121q0 -47 32 -47q31 0 31 47v211q0 46 -31 46
q-32 0 -32 -46v-211zM131 508q0 -47 32 -47q31 0 31 47v202q0 47 -31 47q-32 0 -32 -47v-202z" />
    <glyph glyph-name="nine.lf" horiz-adv-x="331" 
d="M314 221q0 -229 -152 -229q-67 0 -103 48.5t-36 130.5v91h102q7 -30 7 -100v-45q0 -44 30 -44q31 0 31 46v258h-10q-19 -38 -68 -38q-44 0 -72.5 40.5t-28.5 112.5v157q0 87 37.5 138t107.5 51q155 0 155 -229v-388zM130 468q0 -47 32 -47q31 0 31 47v241q0 47 -31 47
q-32 0 -32 -47v-241z" />
    <glyph glyph-name="zero.lf.zero" horiz-adv-x="343" 
d="M18 613q0 111 40 168t113 57q74 0 114 -56.5t40 -168.5v-396q0 -112 -40 -168.5t-114 -56.5q-73 0 -113 57t-40 168v396zM139 121q0 -47 32 -47q33 0 33 47v296h-10l-55 -83v-213zM139 417h10l55 84v208q0 47 -33 47q-32 0 -32 -47v-292z" />
    <glyph glyph-name="period.ss03" horiz-adv-x="94" 
d="M25 154h44v-154h-44v154z" />
    <glyph glyph-name="comma.ss03" horiz-adv-x="94" 
d="M25 154h44v-134l-19 -85h-25v219z" />
    <glyph glyph-name="colon.ss03" horiz-adv-x="94" 
d="M25 154h44v-154h-44v154zM25 486v154h44v-154h-44z" />
    <glyph glyph-name="semicolon.ss03" horiz-adv-x="94" 
d="M25 640h44v-154h-44v154zM25 -65v219h44v-134l-19 -85h-25z" />
    <glyph glyph-name="exclam.ss03" horiz-adv-x="94" 
d="M25 154h44v-154h-44v154zM26 640v190h42v-190l-8 -416h-26z" />
    <glyph glyph-name="question.ss03" horiz-adv-x="178" 
d="M75 224q-4 102 14 191q2 12 8.5 44t8.5 44t6.5 38t6 41.5t3 37t1.5 42.5v85q0 48 -34 48q-33 0 -33 -48v-88q0 -71 -6 -101h-36v182q0 46 19.5 71.5t56.5 25.5t56.5 -25.5t19.5 -71.5v-72q0 -101 -41 -263q-21 -83 -22 -181h-28zM68 0v154h43v-154h-43z" />
    <glyph glyph-name="hyphen.case" horiz-adv-x="196" 
d="M23 429h150v-42h-150v42z" />
    <glyph glyph-name="endash.case" horiz-adv-x="360" 
d="M23 429h314v-42h-314v42z" />
    <glyph glyph-name="emdash.case" horiz-adv-x="550" 
d="M23 429h504v-42h-504v42z" />
    <glyph glyph-name="parenleft.case" horiz-adv-x="147" 
d="M105 830h38v-10q-75 -188 -75 -405t75 -405v-10h-38q-80 187 -80 415t80 415z" />
    <glyph glyph-name="parenright.case" horiz-adv-x="147" 
d="M42 830q80 -187 80 -415t-80 -415h-39v10q76 191 76 405t-76 405v10h39z" />
    <glyph glyph-name="braceleft.case" horiz-adv-x="188" 
d="M30 436q28 0 39.5 12t11.5 39v261q0 82 82 82h21v-40h-60v-298q0 -67 -56 -72v-10q56 -5 56 -72v-298h60v-40h-21q-82 0 -82 82v261q0 27 -11.5 39t-39.5 12h-17v42h17z" />
    <glyph glyph-name="braceright.case" horiz-adv-x="188" 
d="M175 436v-42h-18q-28 0 -39.5 -12.5t-11.5 -38.5v-261q0 -82 -82 -82h-21v40h60v298q0 67 57 72v10q-57 5 -57 72v298h-60v40h21q82 0 82 -82v-261q0 -26 11.5 -38.5t39.5 -12.5h18z" />
    <glyph glyph-name="bracketleft.case" horiz-adv-x="132" 
d="M25 830h103v-40h-60v-750h60v-40h-103v830z" />
    <glyph glyph-name="bracketright.case" horiz-adv-x="132" 
d="M106 830v-830h-103v40h60v750h-60v40h103z" />
    <glyph glyph-name="quotesinglbase.ss03" horiz-adv-x="94" 
d="M25 154h44v-134l-19 -85h-25v219z" />
    <glyph glyph-name="quotedblbase.ss03" horiz-adv-x="168" 
d="M25 154h44v-134l-19 -85h-25v219zM99 -65v219h43v-134l-18 -85h-25z" />
    <glyph glyph-name="quotedblleft.ss03" horiz-adv-x="168" 
d="M142 636h-43v134l18 85h25v-219zM25 636v134l19 85h25v-219h-44z" />
    <glyph glyph-name="quotedblright.ss03" horiz-adv-x="168" 
d="M25 830h44v-134l-19 -85h-25v219zM99 611v219h43v-134l-18 -85h-25z" />
    <glyph glyph-name="quoteleft.ss03" horiz-adv-x="94" 
d="M69 636h-44v134l19 85h25v-219z" />
    <glyph glyph-name="quoteright.ss03" horiz-adv-x="94" 
d="M25 830h44v-134l-19 -85h-25v219z" />
    <glyph glyph-name="quotedbl.ss03" horiz-adv-x="164" 
d="M22 830h47v-10l-8 -209h-31l-8 209v10zM95 820v10h47v-10l-8 -209h-31z" />
    <glyph glyph-name="quotesingle.ss03" horiz-adv-x="91" 
d="M22 830h47v-10l-8 -209h-31l-8 209v10z" />
    </font>
</defs>
</svg>
